<svg viewBox="0 0 92.5 91.5615" xmlns="http://www.w3.org/2000/svg" xmlns:xlink="http://www.w3.org/1999/xlink" width="92.500000" height="91.561523" fill="none" customFrame="#000000">
	<defs>
		<clipPath id="clipPath_0">
			<rect width="92.000000" height="64.561409" x="0.000000" y="0.000000" fill="rgb(255,255,255)" />
		</clipPath>
		<clipPath id="clipPath_1">
			<rect width="32.862347" height="51.929825" x="29.919922" y="6.105469" fill="rgb(255,255,255)" />
		</clipPath>
	</defs>
	<rect id="Frame 432" width="92.000000" height="91.561409" x="0.500000" y="0.000000" />
	<g id="Frame" opacity="0.5" clip-path="url(#clipPath_0)" customFrame="url(#clipPath_0)">
		<rect id="Frame" width="92.000000" height="64.561409" x="0.000000" y="0.000000" fill="rgb(255,255,255)" fill-opacity="0" />
		<g id="Frame" clip-path="url(#clipPath_1)" customFrame="url(#clipPath_1)">
			<rect id="Frame" width="32.862347" height="51.929825" x="29.919922" y="6.105469" fill="rgb(255,255,255)" fill-opacity="0" />
			<path id="Vector" d="M40.5972 38.5536C40.3697 38.5536 40.1914 38.3754 40.1914 38.1479L40.1914 34.415C40.1914 34.1875 40.3697 34.0093 40.5972 34.0093C40.8247 34.0093 41.0029 34.1875 41.0029 34.415L41.0029 38.1479C41.0029 38.3672 40.8176 38.5536 40.5972 38.5536Z" fill="rgb(0,0,0)" fill-rule="nonzero" />
			<path id="Vector" d="M51.7866 38.5536C51.5591 38.5536 51.3809 38.3754 51.3809 38.1479L51.3809 34.415C51.3809 34.1875 51.5591 34.0093 51.7866 34.0093C52.0141 34.0093 52.1924 34.1875 52.1924 34.415L52.1924 38.1479C52.1924 38.3718 52.0106 38.5536 51.7866 38.5536Z" fill="rgb(0,0,0)" fill-rule="nonzero" />
			<path id="Vector" d="M30.3257 58.0353C30.0982 58.0353 29.9199 57.857 29.9199 57.6295L29.9199 54.8384C29.9199 54.6109 30.0982 54.4327 30.3257 54.4327L33.8064 54.4327L33.8064 43.1298L32.9303 43.1298C32.7028 43.1298 32.5246 42.9516 32.5246 42.7241L32.5246 39.933C32.5246 39.7055 32.7028 39.5272 32.9303 39.5272L34.7316 39.5272L34.7316 33.0678L33.8638 33.0678C33.6363 33.0678 33.4581 32.8895 33.4581 32.662L33.4581 29.8709C33.4581 29.6434 33.6363 29.4652 33.8638 29.4652L36.7605 29.4652L36.7605 17.8457L35.3321 17.8457C35.1046 17.8457 34.9263 17.6675 34.9263 17.4399L34.9263 14.6488C34.9263 14.4213 35.1046 14.2431 35.3321 14.2431L37.117 14.2431C38.3296 10.4481 41.8114 7.78131 45.7823 7.60657L45.7823 6.51123C45.7823 6.28372 45.9606 6.10547 46.1881 6.10547C46.4156 6.10547 46.5938 6.28372 46.5938 6.51123L46.5938 7.60657C50.5718 7.77427 54.0606 10.4411 55.2756 14.2431L57.0535 14.2431C57.281 14.2431 57.4592 14.4213 57.4592 14.6488L57.4592 17.4399C57.4592 17.6675 57.281 17.8457 57.0535 17.8457L55.6169 17.8457L55.6169 29.4652L58.5217 29.4652C58.7492 29.4652 58.9275 29.6434 58.9275 29.8709L58.9275 32.662C58.9275 32.8825 58.7422 33.0678 58.5217 33.0678L57.6457 33.0678L57.6457 39.5272L59.447 39.5272C59.6745 39.5272 59.8528 39.7055 59.8528 39.933L59.8528 42.7241C59.8528 42.9516 59.6745 43.1298 59.447 43.1298L58.5792 43.1298L58.5792 54.4327L62.3765 54.4327C62.604 54.4327 62.7823 54.6109 62.7823 54.8384L62.7823 57.6295C62.7823 57.8535 62.6005 58.0353 62.3765 58.0353L30.3257 58.0353ZM61.9707 57.2238L61.9707 55.2442L30.7315 55.2442L30.7315 57.2238L61.9707 57.2238ZM57.7677 54.4327L57.7677 43.1298L55.9253 43.1298L55.9253 54.4327L57.7677 54.4327ZM55.1138 54.4327L55.1138 43.1298L37.2718 43.1298L37.2718 54.4327L42.3192 54.4327L42.3192 49.832C42.3192 47.693 44.0596 45.9538 46.1975 45.9538C48.3365 45.9538 50.0757 47.6941 50.0757 49.832L50.0757 54.4327L55.1138 54.4327ZM49.256 54.4327L49.256 49.832C49.256 48.1409 47.8803 46.7653 46.1893 46.7653C44.4982 46.7653 43.1226 48.1409 43.1226 49.832L43.1226 54.4327L49.256 54.4327ZM36.4603 54.4327L36.4603 43.1298L34.6179 43.1298L34.6179 54.4327L36.4603 54.4327ZM59.0412 42.3183L59.0412 40.3387L55.9253 40.3387L55.9253 42.3183L59.0412 42.3183ZM55.1138 42.3183L55.1138 40.3387L54.6435 40.3387L54.6435 42.3183L55.1138 42.3183ZM53.832 42.3183L53.832 40.3387L38.5454 40.3387L38.5454 42.3183L53.832 42.3183ZM37.7338 42.3183L37.7338 40.3387L37.2718 40.3387L37.2718 42.3183L37.7338 42.3183ZM36.4603 42.3183L36.4603 40.3387L33.3361 40.3387L33.3361 42.3183L36.4603 42.3183ZM56.8342 39.5272L56.8342 33.0678L54.9918 33.0678L54.9918 39.5272L56.8342 39.5272ZM54.1814 39.5272L54.1814 33.0678L38.1959 33.0678L38.1959 39.5272L43.5272 39.5272L43.5272 36.6716C43.5272 35.1998 44.7245 34.0025 46.1963 34.0025C47.6681 34.0025 48.8654 35.1998 48.8654 36.6716L48.8654 39.5272L54.1814 39.5272ZM48.0469 39.5272L48.0469 36.6716C48.0469 35.6466 47.2131 34.814 46.1893 34.814C45.1643 34.814 44.3316 35.6478 44.3316 36.6716L44.3316 39.5272L48.0469 39.5272ZM37.3844 39.5272L37.3844 33.0678L35.5432 33.0678L35.5432 39.5272L37.3844 39.5272ZM58.116 32.2574L58.116 30.2779L54.9918 30.2779L54.9918 32.2574L58.116 32.2574ZM54.1814 32.2574L54.1814 30.2779L53.7194 30.2779L53.7194 32.2574L54.1814 32.2574ZM52.9067 32.2574L52.9067 30.2779L39.4777 30.2779L39.4777 32.2574L52.9067 32.2574ZM38.6673 32.2574L38.6673 30.2779L38.1971 30.2779L38.1971 32.2574L38.6673 32.2574ZM37.3844 32.2574L37.3844 30.2779L34.2696 30.2779L34.2696 32.2574L37.3844 32.2574ZM54.8053 29.4663L54.8053 17.8469L37.572 17.8469L37.572 29.4663L40.2576 29.4663L40.2576 27.4211C40.2576 26.151 41.2907 25.1167 42.562 25.1167C43.8321 25.1167 44.8664 26.1498 44.8664 27.4211L44.8664 29.4663L47.5109 29.4663L47.5109 27.4211C47.5109 26.151 48.5441 25.1167 49.8153 25.1167C51.0866 25.1167 52.1198 26.1498 52.1198 27.4211L52.1198 29.4663L54.8053 29.4663ZM51.3165 29.4663L51.3165 27.4211C51.3165 26.5978 50.6468 25.9282 49.8236 25.9282C49.0003 25.9282 48.3307 26.5978 48.3307 27.4211L48.3307 29.4663L51.3165 29.4663ZM44.0631 29.4663L44.0631 27.4211C44.0631 26.5978 43.3935 25.9282 42.5702 25.9282C41.7469 25.9282 41.0773 26.5978 41.0773 27.4211L41.0773 29.4663L44.0631 29.4663ZM56.6477 17.0353L56.6477 15.0558L35.7379 15.0558L35.7379 17.0353L56.6477 17.0353ZM54.416 14.2442C53.9387 12.8897 53.1201 11.6595 52.0459 10.6862C50.6679 10.7554 49.5878 11.8906 49.5878 13.2709C49.5878 13.4984 49.4096 13.6766 49.1821 13.6766C48.9546 13.6766 48.7763 13.4984 48.7763 13.2709C48.7763 11.8437 47.6153 10.6826 46.1881 10.6826C44.7609 10.6826 43.5999 11.8437 43.5999 13.2709C43.5999 13.4984 43.4216 13.6766 43.1941 13.6766C42.9666 13.6766 42.7883 13.4984 42.7883 13.2709C42.7883 11.8929 41.7106 10.7565 40.335 10.6862C39.2631 11.6595 38.4445 12.8897 37.9684 14.2442L54.416 14.2442ZM46.1881 9.86994C47.4382 9.86994 48.5852 10.5536 49.1821 11.6548C49.6089 10.8668 50.3466 10.2675 51.2062 10.0118C49.7227 8.96342 47.9906 8.40989 46.1951 8.40989C44.3926 8.40989 42.6558 8.96459 41.1711 10.013C42.0284 10.2687 42.766 10.8679 43.1929 11.6548C43.791 10.5548 44.938 9.86994 46.1881 9.86994Z" fill="rgb(0,0,0)" fill-rule="nonzero" />
			<path id="Vector" d="M43.9004 45.1983C43.6729 45.1983 43.4946 45.02 43.4946 44.7925C43.4946 44.565 43.6729 44.3867 43.9004 44.3867L48.4846 44.3867C48.7121 44.3867 48.8904 44.565 48.8904 44.7925C48.8904 45.013 48.7051 45.1983 48.4846 45.1983L43.9004 45.1983Z" fill="rgb(0,0,0)" fill-rule="nonzero" />
			<path id="Vector" d="M52.5254 52.6721C52.2979 52.6721 52.1196 52.4939 52.1196 52.2663L52.1196 47.6821C52.1196 47.4546 52.2979 47.2764 52.5254 47.2764C52.7529 47.2764 52.9312 47.4546 52.9312 47.6821L52.9312 52.2663C52.9312 52.4939 52.7529 52.6721 52.5254 52.6721Z" fill="rgb(0,0,0)" fill-rule="nonzero" />
			<path id="Vector" d="M39.8516 52.6721C39.6241 52.6721 39.4458 52.4939 39.4458 52.2663L39.4458 47.6821C39.4458 47.4546 39.6241 47.2764 39.8516 47.2764C40.0791 47.2764 40.2573 47.4546 40.2573 47.6821L40.2573 52.2663C40.2573 52.4939 40.0791 52.6721 39.8516 52.6721Z" fill="rgb(0,0,0)" fill-rule="nonzero" />
			<path id="Vector" d="M46.1885 25.5469C44.3227 25.5469 42.8052 24.0294 42.8052 22.1636C42.8052 20.2978 44.3227 18.7803 46.1885 18.7803C48.0543 18.7803 49.5718 20.2978 49.5718 22.1636C49.573 24.0283 48.0543 25.5469 46.1885 25.5469ZM46.1909 19.5906C45.5001 19.6082 44.8622 19.892 44.3895 20.3893C43.9158 20.8877 43.6648 21.5397 43.6812 22.2269C43.7152 23.599 44.8176 24.7002 46.1885 24.7342C46.8769 24.7167 47.5149 24.4328 47.9887 23.9356C48.4624 23.4372 48.7134 22.7852 48.6958 22.0979C48.6618 20.727 47.5618 19.6258 46.1909 19.5906Z" fill="rgb(0,0,0)" fill-rule="nonzero" />
			<path id="Vector" d="M51.7866 24.4438C51.5591 24.4438 51.3809 24.2655 51.3809 24.038L51.3809 20.3052C51.3809 20.0777 51.5591 19.8994 51.7866 19.8994C52.0141 19.8994 52.1924 20.0777 52.1924 20.3052L52.1924 24.038C52.1924 24.262 52.0106 24.4438 51.7866 24.4438Z" fill="rgb(0,0,0)" fill-rule="nonzero" />
			<path id="Vector" d="M40.5972 24.4438C40.3697 24.4438 40.1914 24.2655 40.1914 24.038L40.1914 20.3052C40.1914 20.0777 40.3697 19.8994 40.5972 19.8994C40.8247 19.8994 41.0029 20.0777 41.0029 20.3052L41.0029 24.038C41.0029 24.2573 40.8176 24.4438 40.5972 24.4438Z" fill="rgb(0,0,0)" fill-rule="nonzero" />
			<path id="Vector" d="M44.9722 22.5681C44.7447 22.5681 44.5664 22.3899 44.5664 22.1624C44.5664 21.9349 44.7447 21.7566 44.9722 21.7566L45.7837 21.7566L45.7837 20.7422C45.7837 20.5147 45.962 20.3364 46.1895 20.3364C46.417 20.3364 46.5952 20.5147 46.5952 20.7422L46.5952 22.1624C46.5952 22.3899 46.417 22.5681 46.1895 22.5681L44.9722 22.5681Z" fill="rgb(0,0,0)" fill-rule="nonzero" />
		</g>
	</g>
	<path id="Coimbatore" d="M0.771906 74.514C0.771906 73.562 0.99124 72.708 1.42991 71.952C1.87791 71.196 2.47991 70.608 3.23591 70.188C4.00124 69.7587 4.83657 69.544 5.74191 69.544C6.77791 69.544 7.69724 69.8007 8.49991 70.314C9.31191 70.818 9.89991 71.5367 10.2639 72.47L8.34591 72.47C8.09391 71.9567 7.74391 71.574 7.29591 71.322C6.84791 71.07 6.32991 70.944 5.74191 70.944C5.09791 70.944 4.52391 71.0887 4.01991 71.378C3.51591 71.6673 3.11924 72.0827 2.82991 72.624C2.54991 73.1653 2.40991 73.7953 2.40991 74.514C2.40991 75.2327 2.54991 75.8627 2.82991 76.404C3.11924 76.9453 3.51591 77.3653 4.01991 77.664C4.52391 77.9533 5.09791 78.098 5.74191 78.098C6.32991 78.098 6.84791 77.972 7.29591 77.72C7.74391 77.468 8.09391 77.0853 8.34591 76.572L10.2639 76.572C9.89991 77.5053 9.31191 78.224 8.49991 78.728C7.69724 79.232 6.77791 79.484 5.74191 79.484C4.82724 79.484 3.99191 79.274 3.23591 78.854C2.47991 78.4247 1.87791 77.832 1.42991 77.076C0.99124 76.32 0.771906 75.466 0.771906 74.514ZM16.57 79.498C15.6647 79.498 14.8294 79.288 14.064 78.868C13.308 78.4387 12.706 77.846 12.258 77.09C11.8194 76.3247 11.6 75.466 11.6 74.514C11.6 73.562 11.8194 72.708 12.258 71.952C12.706 71.196 13.308 70.608 14.064 70.188C14.8294 69.7587 15.6647 69.544 16.57 69.544C17.4847 69.544 18.32 69.7587 19.076 70.188C19.8414 70.608 20.4434 71.196 20.882 71.952C21.3207 72.708 21.54 73.562 21.54 74.514C21.54 75.466 21.3207 76.3247 20.882 77.09C20.4434 77.846 19.8414 78.4387 19.076 78.868C18.32 79.288 17.4847 79.498 16.57 79.498ZM16.57 78.112C17.214 78.112 17.788 77.9673 18.292 77.678C18.796 77.3793 19.188 76.9593 19.468 76.418C19.7574 75.8673 19.902 75.2327 19.902 74.514C19.902 73.7953 19.7574 73.1653 19.468 72.624C19.188 72.0827 18.796 71.6673 18.292 71.378C17.788 71.0887 17.214 70.944 16.57 70.944C15.926 70.944 15.352 71.0887 14.848 71.378C14.344 71.6673 13.9474 72.0827 13.658 72.624C13.378 73.1653 13.238 73.7953 13.238 74.514C13.238 75.2327 13.378 75.8673 13.658 76.418C13.9474 76.9593 14.344 77.3793 14.848 77.678C15.352 77.9673 15.926 78.112 16.57 78.112ZM24.7065 69.67L24.7065 79.4L23.1105 79.4L23.1105 69.67L24.7065 69.67ZM37.05 69.67L37.05 79.4L35.454 79.4L35.454 72.736L32.486 79.4L31.38 79.4L28.398 72.736L28.398 79.4L26.802 79.4L26.802 69.67L28.524 69.67L31.94 77.3L35.342 69.67L37.05 69.67ZM44.3557 74.402C44.8783 74.4953 45.3217 74.7707 45.6857 75.228C46.0497 75.6853 46.2317 76.2033 46.2317 76.782C46.2317 77.2767 46.101 77.7247 45.8397 78.126C45.5877 78.518 45.219 78.8307 44.7337 79.064C44.2483 79.288 43.6837 79.4 43.0397 79.4L39.1477 79.4L39.1477 69.67L42.8577 69.67C43.5203 69.67 44.0897 69.782 44.5657 70.006C45.0417 70.23 45.401 70.5333 45.6437 70.916C45.8863 71.2893 46.0077 71.7093 46.0077 72.176C46.0077 72.736 45.8583 73.2027 45.5597 73.576C45.261 73.9493 44.8597 74.2247 44.3557 74.402ZM40.7437 73.758L42.7177 73.758C43.2403 73.758 43.6463 73.6413 43.9357 73.408C44.2343 73.1653 44.3837 72.82 44.3837 72.372C44.3837 71.9333 44.2343 71.5927 43.9357 71.35C43.6463 71.098 43.2403 70.972 42.7177 70.972L40.7437 70.972L40.7437 73.758ZM42.8997 78.098C43.441 78.098 43.8657 77.9673 44.1737 77.706C44.4817 77.4447 44.6357 77.0807 44.6357 76.614C44.6357 76.138 44.4723 75.76 44.1457 75.48C43.819 75.2 43.385 75.06 42.8437 75.06L40.7437 75.06L40.7437 78.098L42.8997 78.098ZM53.832 77.412L49.758 77.412L49.058 79.4L47.392 79.4L50.878 69.656L52.726 69.656L56.212 79.4L54.532 79.4L53.832 77.412ZM53.384 76.11L51.802 71.588L50.206 76.11L53.384 76.11ZM64.0137 69.67L64.0137 70.972L61.4237 70.972L61.4237 79.4L59.8277 79.4L59.8277 70.972L57.2237 70.972L57.2237 69.67L64.0137 69.67ZM70.0681 79.498C69.1627 79.498 68.3274 79.288 67.5621 78.868C66.8061 78.4387 66.2041 77.846 65.7561 77.09C65.3174 76.3247 65.0981 75.466 65.0981 74.514C65.0981 73.562 65.3174 72.708 65.7561 71.952C66.2041 71.196 66.8061 70.608 67.5621 70.188C68.3274 69.7587 69.1627 69.544 70.0681 69.544C70.9827 69.544 71.8181 69.7587 72.5741 70.188C73.3394 70.608 73.9414 71.196 74.3801 71.952C74.8187 72.708 75.0381 73.562 75.0381 74.514C75.0381 75.466 74.8187 76.3247 74.3801 77.09C73.9414 77.846 73.3394 78.4387 72.5741 78.868C71.8181 79.288 70.9827 79.498 70.0681 79.498ZM70.0681 78.112C70.7121 78.112 71.2861 77.9673 71.7901 77.678C72.2941 77.3793 72.6861 76.9593 72.9661 76.418C73.2554 75.8673 73.4001 75.2327 73.4001 74.514C73.4001 73.7953 73.2554 73.1653 72.9661 72.624C72.6861 72.0827 72.2941 71.6673 71.7901 71.378C71.2861 71.0887 70.7121 70.944 70.0681 70.944C69.4241 70.944 68.8501 71.0887 68.3461 71.378C67.8421 71.6673 67.4454 72.0827 67.1561 72.624C66.8761 73.1653 66.7361 73.7953 66.7361 74.514C66.7361 75.2327 66.8761 75.8673 67.1561 76.418C67.4454 76.9593 67.8421 77.3793 68.3461 77.678C68.8501 77.9673 69.4241 78.112 70.0681 78.112ZM81.6626 79.4L79.4226 75.508L78.2046 75.508L78.2046 79.4L76.6086 79.4L76.6086 69.67L79.9686 69.67C80.7153 69.67 81.3453 69.8007 81.8586 70.062C82.3813 70.3233 82.7686 70.6733 83.0206 71.112C83.2819 71.5507 83.4126 72.0407 83.4126 72.582C83.4126 73.2167 83.2259 73.7953 82.8526 74.318C82.4886 74.8313 81.9239 75.1813 81.1586 75.368L83.5666 79.4L81.6626 79.4ZM78.2046 74.234L79.9686 74.234C80.5659 74.234 81.0139 74.0847 81.3126 73.786C81.6206 73.4873 81.7746 73.086 81.7746 72.582C81.7746 72.078 81.6253 71.686 81.3266 71.406C81.0279 71.1167 80.5753 70.972 79.9686 70.972L78.2046 70.972L78.2046 74.234ZM87.0503 70.958L87.0503 73.814L90.4103 73.814L90.4103 75.116L87.0503 75.116L87.0503 78.098L90.8303 78.098L90.8303 79.4L85.4543 79.4L85.4543 69.656L90.8303 69.656L90.8303 70.958L87.0503 70.958Z" fill="rgb(26,26,26)" fill-rule="nonzero" />
	<path id="Coimbatore" d="M0.771906 74.514C0.771906 73.562 0.99124 72.708 1.42991 71.952C1.87791 71.196 2.47991 70.608 3.23591 70.188C4.00124 69.7587 4.83657 69.544 5.74191 69.544C6.77791 69.544 7.69724 69.8007 8.49991 70.314C9.31191 70.818 9.89991 71.5367 10.2639 72.47L8.34591 72.47C8.09391 71.9567 7.74391 71.574 7.29591 71.322C6.84791 71.07 6.32991 70.944 5.74191 70.944C5.09791 70.944 4.52391 71.0887 4.01991 71.378C3.51591 71.6673 3.11924 72.0827 2.82991 72.624C2.54991 73.1653 2.40991 73.7953 2.40991 74.514C2.40991 75.2327 2.54991 75.8627 2.82991 76.404C3.11924 76.9453 3.51591 77.3653 4.01991 77.664C4.52391 77.9533 5.09791 78.098 5.74191 78.098C6.32991 78.098 6.84791 77.972 7.29591 77.72C7.74391 77.468 8.09391 77.0853 8.34591 76.572L10.2639 76.572C9.89991 77.5053 9.31191 78.224 8.49991 78.728C7.69724 79.232 6.77791 79.484 5.74191 79.484C4.82724 79.484 3.99191 79.274 3.23591 78.854C2.47991 78.4247 1.87791 77.832 1.42991 77.076C0.99124 76.32 0.771906 75.466 0.771906 74.514ZM16.57 79.498C15.6647 79.498 14.8294 79.288 14.064 78.868C13.308 78.4387 12.706 77.846 12.258 77.09C11.8194 76.3247 11.6 75.466 11.6 74.514C11.6 73.562 11.8194 72.708 12.258 71.952C12.706 71.196 13.308 70.608 14.064 70.188C14.8294 69.7587 15.6647 69.544 16.57 69.544C17.4847 69.544 18.32 69.7587 19.076 70.188C19.8414 70.608 20.4434 71.196 20.882 71.952C21.3207 72.708 21.54 73.562 21.54 74.514C21.54 75.466 21.3207 76.3247 20.882 77.09C20.4434 77.846 19.8414 78.4387 19.076 78.868C18.32 79.288 17.4847 79.498 16.57 79.498ZM16.57 78.112C17.214 78.112 17.788 77.9673 18.292 77.678C18.796 77.3793 19.188 76.9593 19.468 76.418C19.7574 75.8673 19.902 75.2327 19.902 74.514C19.902 73.7953 19.7574 73.1653 19.468 72.624C19.188 72.0827 18.796 71.6673 18.292 71.378C17.788 71.0887 17.214 70.944 16.57 70.944C15.926 70.944 15.352 71.0887 14.848 71.378C14.344 71.6673 13.9474 72.0827 13.658 72.624C13.378 73.1653 13.238 73.7953 13.238 74.514C13.238 75.2327 13.378 75.8673 13.658 76.418C13.9474 76.9593 14.344 77.3793 14.848 77.678C15.352 77.9673 15.926 78.112 16.57 78.112ZM24.7065 69.67L24.7065 79.4L23.1105 79.4L23.1105 69.67L24.7065 69.67ZM37.05 69.67L37.05 79.4L35.454 79.4L35.454 72.736L32.486 79.4L31.38 79.4L28.398 72.736L28.398 79.4L26.802 79.4L26.802 69.67L28.524 69.67L31.94 77.3L35.342 69.67L37.05 69.67ZM44.3557 74.402C44.8783 74.4953 45.3217 74.7707 45.6857 75.228C46.0497 75.6853 46.2317 76.2033 46.2317 76.782C46.2317 77.2767 46.101 77.7247 45.8397 78.126C45.5877 78.518 45.219 78.8307 44.7337 79.064C44.2483 79.288 43.6837 79.4 43.0397 79.4L39.1477 79.4L39.1477 69.67L42.8577 69.67C43.5203 69.67 44.0897 69.782 44.5657 70.006C45.0417 70.23 45.401 70.5333 45.6437 70.916C45.8863 71.2893 46.0077 71.7093 46.0077 72.176C46.0077 72.736 45.8583 73.2027 45.5597 73.576C45.261 73.9493 44.8597 74.2247 44.3557 74.402ZM40.7437 73.758L42.7177 73.758C43.2403 73.758 43.6463 73.6413 43.9357 73.408C44.2343 73.1653 44.3837 72.82 44.3837 72.372C44.3837 71.9333 44.2343 71.5927 43.9357 71.35C43.6463 71.098 43.2403 70.972 42.7177 70.972L40.7437 70.972L40.7437 73.758ZM42.8997 78.098C43.441 78.098 43.8657 77.9673 44.1737 77.706C44.4817 77.4447 44.6357 77.0807 44.6357 76.614C44.6357 76.138 44.4723 75.76 44.1457 75.48C43.819 75.2 43.385 75.06 42.8437 75.06L40.7437 75.06L40.7437 78.098L42.8997 78.098ZM53.832 77.412L49.758 77.412L49.058 79.4L47.392 79.4L50.878 69.656L52.726 69.656L56.212 79.4L54.532 79.4L53.832 77.412ZM53.384 76.11L51.802 71.588L50.206 76.11L53.384 76.11ZM64.0137 69.67L64.0137 70.972L61.4237 70.972L61.4237 79.4L59.8277 79.4L59.8277 70.972L57.2237 70.972L57.2237 69.67L64.0137 69.67ZM70.0681 79.498C69.1627 79.498 68.3274 79.288 67.5621 78.868C66.8061 78.4387 66.2041 77.846 65.7561 77.09C65.3174 76.3247 65.0981 75.466 65.0981 74.514C65.0981 73.562 65.3174 72.708 65.7561 71.952C66.2041 71.196 66.8061 70.608 67.5621 70.188C68.3274 69.7587 69.1627 69.544 70.0681 69.544C70.9827 69.544 71.8181 69.7587 72.5741 70.188C73.3394 70.608 73.9414 71.196 74.3801 71.952C74.8187 72.708 75.0381 73.562 75.0381 74.514C75.0381 75.466 74.8187 76.3247 74.3801 77.09C73.9414 77.846 73.3394 78.4387 72.5741 78.868C71.8181 79.288 70.9827 79.498 70.0681 79.498ZM70.0681 78.112C70.7121 78.112 71.2861 77.9673 71.7901 77.678C72.2941 77.3793 72.6861 76.9593 72.9661 76.418C73.2554 75.8673 73.4001 75.2327 73.4001 74.514C73.4001 73.7953 73.2554 73.1653 72.9661 72.624C72.6861 72.0827 72.2941 71.6673 71.7901 71.378C71.2861 71.0887 70.7121 70.944 70.0681 70.944C69.4241 70.944 68.8501 71.0887 68.3461 71.378C67.8421 71.6673 67.4454 72.0827 67.1561 72.624C66.8761 73.1653 66.7361 73.7953 66.7361 74.514C66.7361 75.2327 66.8761 75.8673 67.1561 76.418C67.4454 76.9593 67.8421 77.3793 68.3461 77.678C68.8501 77.9673 69.4241 78.112 70.0681 78.112ZM81.6626 79.4L79.4226 75.508L78.2046 75.508L78.2046 79.4L76.6086 79.4L76.6086 69.67L79.9686 69.67C80.7153 69.67 81.3453 69.8007 81.8586 70.062C82.3813 70.3233 82.7686 70.6733 83.0206 71.112C83.2819 71.5507 83.4126 72.0407 83.4126 72.582C83.4126 73.2167 83.2259 73.7953 82.8526 74.318C82.4886 74.8313 81.9239 75.1813 81.1586 75.368L83.5666 79.4L81.6626 79.4ZM78.2046 74.234L79.9686 74.234C80.5659 74.234 81.0139 74.0847 81.3126 73.786C81.6206 73.4873 81.7746 73.086 81.7746 72.582C81.7746 72.078 81.6253 71.686 81.3266 71.406C81.0279 71.1167 80.5753 70.972 79.9686 70.972L78.2046 70.972L78.2046 74.234ZM87.0503 70.958L87.0503 73.814L90.4103 73.814L90.4103 75.116L87.0503 75.116L87.0503 78.098L90.8303 78.098L90.8303 79.4L85.4543 79.4L85.4543 69.656L90.8303 69.656L90.8303 70.958L87.0503 70.958Z" fill="rgb(0,0,0)" fill-opacity="0.200000003" fill-rule="nonzero" />
</svg>
