<svg viewBox="0 0 80 83" xmlns="http://www.w3.org/2000/svg" xmlns:xlink="http://www.w3.org/1999/xlink" width="80.000000" height="83.000000" fill="none" customFrame="#000000">
	<defs>
		<clipPath id="clipPath_2">
			<rect width="80.000000" height="56.140350" x="0.000000" y="0.000000" fill="rgb(255,255,255)" />
		</clipPath>
	</defs>
	<g id="Group 424">
		<path id="chennai" d="M10.6811 74.514C10.6811 73.562 10.9004 72.708 11.3391 71.952C11.7871 71.196 12.3891 70.608 13.1451 70.188C13.9104 69.7587 14.7458 69.544 15.6511 69.544C16.6871 69.544 17.6064 69.8007 18.4091 70.314C19.2211 70.818 19.8091 71.5367 20.1731 72.47L18.2551 72.47C18.0031 71.9567 17.6531 71.574 17.2051 71.322C16.7571 71.07 16.2391 70.944 15.6511 70.944C15.0071 70.944 14.4331 71.0887 13.9291 71.378C13.4251 71.6673 13.0284 72.0827 12.7391 72.624C12.4591 73.1653 12.3191 73.7953 12.3191 74.514C12.3191 75.2327 12.4591 75.8627 12.7391 76.404C13.0284 76.9453 13.4251 77.3653 13.9291 77.664C14.4331 77.9533 15.0071 78.098 15.6511 78.098C16.2391 78.098 16.7571 77.972 17.2051 77.72C17.6531 77.468 18.0031 77.0853 18.2551 76.572L20.1731 76.572C19.8091 77.5053 19.2211 78.224 18.4091 78.728C17.6064 79.232 16.6871 79.484 15.6511 79.484C14.7364 79.484 13.9011 79.274 13.1451 78.854C12.3891 78.4247 11.7871 77.832 11.3391 77.076C10.9004 76.32 10.6811 75.466 10.6811 74.514ZM29.8112 69.67L29.8112 79.4L28.2152 79.4L28.2152 75.144L23.6372 75.144L23.6372 79.4L22.0412 79.4L22.0412 69.67L23.6372 69.67L23.6372 73.842L28.2152 73.842L28.2152 69.67L29.8112 69.67ZM33.5083 70.958L33.5083 73.814L36.8683 73.814L36.8683 75.116L33.5083 75.116L33.5083 78.098L37.2883 78.098L37.2883 79.4L31.9123 79.4L31.9123 69.656L37.2883 69.656L37.2883 70.958L33.5083 70.958ZM47.2481 79.4L45.6521 79.4L40.8501 72.134L40.8501 79.4L39.2541 79.4L39.2541 69.656L40.8501 69.656L45.6521 76.908L45.6521 69.656L47.2481 69.656L47.2481 79.4ZM57.3379 79.4L55.7419 79.4L50.9399 72.134L50.9399 79.4L49.3439 79.4L49.3439 69.656L50.9399 69.656L55.7419 76.908L55.7419 69.656L57.3379 69.656L57.3379 79.4ZM65.2998 77.412L61.2258 77.412L60.5258 79.4L58.8598 79.4L62.3458 69.656L64.1938 69.656L67.6798 79.4L65.9998 79.4L65.2998 77.412ZM64.8518 76.11L63.2698 71.588L61.6738 76.11L64.8518 76.11ZM70.7915 69.67L70.7915 79.4L69.1955 79.4L69.1955 69.67L70.7915 69.67Z" fill="rgb(26,26,26)" fill-rule="nonzero" />
		<path id="chennai" d="M10.6811 74.514C10.6811 73.562 10.9004 72.708 11.3391 71.952C11.7871 71.196 12.3891 70.608 13.1451 70.188C13.9104 69.7587 14.7458 69.544 15.6511 69.544C16.6871 69.544 17.6064 69.8007 18.4091 70.314C19.2211 70.818 19.8091 71.5367 20.1731 72.47L18.2551 72.47C18.0031 71.9567 17.6531 71.574 17.2051 71.322C16.7571 71.07 16.2391 70.944 15.6511 70.944C15.0071 70.944 14.4331 71.0887 13.9291 71.378C13.4251 71.6673 13.0284 72.0827 12.7391 72.624C12.4591 73.1653 12.3191 73.7953 12.3191 74.514C12.3191 75.2327 12.4591 75.8627 12.7391 76.404C13.0284 76.9453 13.4251 77.3653 13.9291 77.664C14.4331 77.9533 15.0071 78.098 15.6511 78.098C16.2391 78.098 16.7571 77.972 17.2051 77.72C17.6531 77.468 18.0031 77.0853 18.2551 76.572L20.1731 76.572C19.8091 77.5053 19.2211 78.224 18.4091 78.728C17.6064 79.232 16.6871 79.484 15.6511 79.484C14.7364 79.484 13.9011 79.274 13.1451 78.854C12.3891 78.4247 11.7871 77.832 11.3391 77.076C10.9004 76.32 10.6811 75.466 10.6811 74.514ZM29.8112 69.67L29.8112 79.4L28.2152 79.4L28.2152 75.144L23.6372 75.144L23.6372 79.4L22.0412 79.4L22.0412 69.67L23.6372 69.67L23.6372 73.842L28.2152 73.842L28.2152 69.67L29.8112 69.67ZM33.5083 70.958L33.5083 73.814L36.8683 73.814L36.8683 75.116L33.5083 75.116L33.5083 78.098L37.2883 78.098L37.2883 79.4L31.9123 79.4L31.9123 69.656L37.2883 69.656L37.2883 70.958L33.5083 70.958ZM47.2481 79.4L45.6521 79.4L40.8501 72.134L40.8501 79.4L39.2541 79.4L39.2541 69.656L40.8501 69.656L45.6521 76.908L45.6521 69.656L47.2481 69.656L47.2481 79.4ZM57.3379 79.4L55.7419 79.4L50.9399 72.134L50.9399 79.4L49.3439 79.4L49.3439 69.656L50.9399 69.656L55.7419 76.908L55.7419 69.656L57.3379 69.656L57.3379 79.4ZM65.2998 77.412L61.2258 77.412L60.5258 79.4L58.8598 79.4L62.3458 69.656L64.1938 69.656L67.6798 79.4L65.9998 79.4L65.2998 77.412ZM64.8518 76.11L63.2698 71.588L61.6738 76.11L64.8518 76.11ZM70.7915 69.67L70.7915 79.4L69.1955 79.4L69.1955 69.67L70.7915 69.67Z" fill="rgb(0,0,0)" fill-opacity="0.200000003" fill-rule="nonzero" />
		<g id="Frame" opacity="0.5" clip-path="url(#clipPath_2)" customFrame="url(#clipPath_2)">
			<rect id="Frame" width="80.000000" height="56.140350" x="0.000000" y="0.000000" fill="rgb(255,255,255)" fill-opacity="0" />
			<g id="Group">
				<path id="Vector" d="M55.58 51C50.12 51 44.6 51 39.14 51C33.92 51 28.7 51 23.48 51C23.18 51 23.12 50.9418 23.12 50.9418C23.06 50.8835 23 50.8253 23 50.5342C23 46.3418 23 42.0911 23 37.8405L23 33.9392L25.22 33.9392L25.22 29.3975L26.72 29.3392L26.72 24.9139L28.58 24.9139L28.58 20.4304L30.38 20.4304L30.38 16.8785L30.38 16.762C30.38 16.6456 30.38 16.4709 30.38 16.3544C30.32 16.0633 30.38 16.0051 30.44 16.0051C30.5 15.9468 30.62 15.9468 30.68 15.9468C30.74 15.9468 30.8 15.9468 30.86 15.9468C30.92 15.9468 31.04 15.9468 31.1 15.9468C31.16 15.9468 31.46 15.9468 31.52 15.9468L31.82 15.9468L31.82 11.4633L33.92 11.4633L33.92 5L34.58 5L34.64 6.33924L36.92 6.33924L36.92 5L37.52 5L37.52 6.33924L41.54 6.33924L41.54 5L42.2 5L42.2 6.33924L44.24 6.33924L44.36 5L44.96 5L44.96 11.4633C44.96 11.4633 46.16 11.4633 46.34 11.4633C46.58 11.4633 46.76 11.4633 47 11.4633L47.06 11.4633C47.18 11.4633 47.24 11.4633 47.24 11.5215C47.24 11.5215 47.3 11.5797 47.3 11.8127C47.3 12.5696 47.3 13.3266 47.3 14.0253L47.3 15.8886L48.74 15.9468L48.74 20.3722L50.48 20.3722L50.48 24.9139L52.4 24.9139L52.4 28.0582C52.4 29.281 52.52 29.3975 53.78 29.3975C53.84 29.3975 53.84 29.3975 53.9 29.3975L53.9 33.881L56 33.881C56 34.0557 56 34.1721 56 34.2886L56 38.6557C56 42.6152 56 46.5165 56 50.4759C56 50.7089 55.94 50.8253 55.94 50.8835C55.94 50.9418 55.82 51 55.58 51ZM34.4 50.3013L44.72 50.3013L44.72 40.8684C44.72 40.2861 44.72 39.9367 44.54 39.7038C44.3 39.4127 44 39.4127 43.46 39.4127L43.28 39.4127C43.04 39.4127 43.04 39.3544 42.98 39.3544C42.98 39.3544 42.92 39.2962 42.92 39.0633C42.92 38.7139 42.92 38.3646 42.92 38.0152L42.92 37.2582L36.26 37.2582L36.26 38.0734C36.26 38.481 36.26 38.8304 36.26 39.238C36.26 39.4127 36.26 39.4127 36.26 39.4127C36.26 39.4127 36.26 39.4127 36.14 39.4127C35.9 39.4127 35.72 39.4127 35.54 39.4127L34.4 39.4127L34.4 50.3013ZM45.38 50.3013L55.28 50.3013L55.28 34.5797L23.72 34.5797L23.72 50.3013L33.8 50.3013L33.8 38.8304L35.66 38.8304L35.66 36.7342L43.64 36.7342L43.64 38.8304L45.38 38.8304L45.38 50.3013ZM43.04 31.2608C43.1 31.9013 43.22 32.4835 43.22 33.1241C43.28 33.8228 43.76 33.9392 44.12 33.9392C44.66 33.9392 45.14 33.9392 45.56 33.9392L47.3 33.9392L52.34 33.9392C52.52 33.9392 52.76 33.9392 52.94 33.7646C53.06 33.6481 53.12 33.4734 53.12 33.2405C53.12 32.6 53.12 31.9595 53.12 31.319L53.12 30.1544L42.92 30.1544C42.92 30.0962 43.04 30.9696 43.04 31.2608ZM25.94 33.881L35.42 33.881L35.9 30.0962L25.94 30.0962L25.94 33.881ZM36.08 33.7646L42.68 33.7646L42.2 30.038L36.5 30.038L36.08 33.7646ZM28.1 25.5544C27.86 25.5544 27.68 25.6127 27.56 25.7291C27.38 25.9038 27.38 26.1367 27.38 26.3114C27.38 27.0684 27.38 27.8253 27.38 28.5241C27.38 28.6987 27.38 28.9899 27.56 29.1646C27.68 29.281 27.92 29.3392 28.16 29.3392C29.12 29.3392 30.08 29.3392 31.04 29.3392C32.42 29.3392 33.86 29.3392 35.24 29.3392C35.54 29.3392 35.96 29.0481 36.02 28.757C36.14 28.0582 36.2 27.3595 36.26 26.6608L36.38 25.6709L36.14 25.6127L36.02 25.5544C35.96 25.5544 35.9 25.4962 35.78 25.4962L33.2 25.4962C31.46 25.5544 29.78 25.5544 28.1 25.5544ZM42.5 26.6608C42.56 27.4177 42.68 28.1165 42.8 28.8152C42.86 29.1063 43.34 29.3975 43.64 29.3975C44.96 29.3975 46.34 29.3975 47.66 29.3975L50.9 29.3975C51.02 29.3975 51.14 29.3975 51.26 29.3392L51.44 29.3392L51.68 29.281L51.68 25.5544L42.38 25.5544L42.5 26.6608ZM39.8 25.5544C39.08 25.5544 38.3 25.5544 37.58 25.5544C37.28 25.5544 37.04 25.8456 36.98 26.0785C36.86 26.7772 36.8 27.5342 36.68 28.2911L36.56 29.281L42.08 29.281L41.66 25.4962L39.8 25.5544ZM29.9 21.0709C29.66 21.0709 29.3 21.362 29.3 21.6532C29.3 22.4101 29.3 23.1671 29.3 23.8658L29.3 24.8557L36.5 24.8557L36.92 21.0127L34.46 21.0127C32.9 21.0709 31.4 21.0709 29.9 21.0709ZM39.38 21.0709C39.02 21.0709 38.6 21.0709 38.24 21.0709C37.94 21.0709 37.58 21.362 37.58 21.6532C37.46 22.3519 37.4 23.0506 37.34 23.8076L37.22 24.8557L41.6 24.8557L41.48 23.7494C41.42 23.0506 41.3 22.3519 41.24 21.6532C41.18 21.362 40.82 21.0709 40.58 21.0709C40.16 21.0709 39.8 21.0709 39.38 21.0709ZM42.32 24.8557L49.82 24.8557L49.82 21.1291L41.84 21.1291L42.32 24.8557ZM31.04 20.4304L33.5 20.4304C34.46 20.4304 35.36 20.4304 36.32 20.4304C36.56 20.4304 36.98 20.1975 36.98 19.9063C37.1 19.1494 37.16 18.4506 37.22 17.6937L37.34 16.7038L31.04 16.7038L31.04 20.4304ZM39.38 16.6456C39.08 16.6456 38.78 16.6456 38.48 16.6456C38.24 16.6456 38.06 16.9367 38 17.1114C37.88 17.8684 37.82 18.6253 37.76 19.3823L37.64 20.3722L41.06 20.3722L40.94 19.2076C40.88 18.5089 40.76 17.8684 40.7 17.2278C40.7 17.1114 40.58 16.7038 40.22 16.7038C39.98 16.6456 39.68 16.6456 39.38 16.6456ZM41.78 20.3722L48.08 20.3722L48.08 16.6456L41.3 16.6456L41.78 20.3722ZM32.54 15.8886L34.76 15.8886C35.48 15.8886 36.2 15.8886 36.92 15.8886C37.16 15.8886 37.58 15.6557 37.64 15.3646C37.76 14.6076 37.82 13.8506 37.88 13.0937L38 12.1038L32.54 12.1038L32.54 15.8886ZM40.88 13.0354C40.94 13.8506 41.06 14.6076 41.18 15.3646C41.24 15.6557 41.6 15.8304 41.84 15.8304C42.68 15.8304 43.52 15.8304 44.36 15.8304L46.64 15.8304L46.64 14.6658C46.64 14.0253 46.64 13.443 46.64 12.8025C46.64 12.5114 46.58 12.3367 46.46 12.162C46.28 11.9873 45.98 11.9291 45.8 11.9291C45.38 11.9291 45.08 11.9291 44.72 11.9291L43.04 11.9291L40.82 11.9291L40.88 13.0354ZM39.5 12.162C39.5 12.162 38.72 12.162 38.66 12.6278C38.54 13.3848 38.48 14.1418 38.36 14.957L38.24 15.9468L40.58 15.9468L40.46 14.8987C40.4 14.1418 40.28 13.443 40.22 12.6861C40.16 12.3367 39.74 12.162 39.5 12.162ZM40.1 11.4051C41.18 11.4051 42.32 11.4051 43.4 11.4633L43.46 11.4633C43.64 11.4633 43.94 11.4633 44.12 11.2304C44.3 10.9975 44.3 10.7646 44.3 10.5316C44.3 10.0658 44.3 9.6 44.3 9.13418C44.3 8.95949 44.3 8.72658 44.3 8.5519C44.3 7.96962 44.3 7.62025 44.18 7.38734C44 6.97975 43.52 6.97975 43.34 6.97975C43.16 6.97975 42.86 6.97975 42.56 7.03797C42.44 7.03797 42.38 7.0962 42.32 7.15443L42.26 7.21266L42.14 7.27089L42.14 10.0076L36.8 10.0076L36.8 7.0962L34.52 7.0962L34.52 11.4051L35.06 11.4633C35.24 11.4633 35.42 11.4633 35.6 11.4633C36.2 11.4633 36.74 11.4633 37.34 11.4633C38.24 11.4633 39.08 11.4633 39.98 11.4633L40.1 11.4633L40.1 11.4051ZM37.52 9.36709L41.42 9.36709L41.42 7.0962L37.52 7.0962L37.52 9.36709Z" fill="rgb(26,26,26)" fill-rule="nonzero" />
				<path id="Vector" d="M49.6468 50.3846C49.5039 50.3846 49.361 50.3846 49.0752 50.3136L49.0752 42.6387L49.7897 42.6387C49.7897 42.6387 49.7897 47.6842 49.7897 49.5319C49.7897 49.8872 49.7897 50.3136 49.7183 50.3846C49.7897 50.3846 49.7183 50.3846 49.6468 50.3846Z" fill="rgb(26,26,26)" fill-rule="nonzero" />
				<path id="Vector" d="M54.291 50.3846C54.1481 50.3846 54.0767 50.3846 54.0767 50.3846C54.0767 50.3846 54.0767 50.1004 54.0767 49.8161L54.0767 42.6387L54.7912 42.6387L54.7912 50.3846L54.7197 50.3846C54.5054 50.3846 54.3625 50.3846 54.291 50.3846Z" fill="rgb(26,26,26)" fill-rule="nonzero" />
				<path id="Vector" d="M30.3542 42.9229L29.6396 42.9229L29.6396 50.3135L30.3542 50.3135L30.3542 42.9229Z" fill="rgb(26,26,26)" fill-rule="evenodd" />
				<path id="Vector" d="M24.3522 50.3841C24.2808 50.3841 24.2808 50.3841 24.2808 50.3841C24.2808 50.3841 24.2808 50.313 24.2808 50.1709C24.2808 48.7496 24.2808 47.3284 24.2808 45.9071L24.2808 42.8513L24.4951 42.7803C24.5666 42.7803 24.638 42.7803 24.7095 42.7803C24.7809 42.7803 24.8524 42.7803 24.9238 42.8513C24.9238 42.8513 24.9953 42.9935 24.9953 43.3488C24.9238 44.9122 24.9953 46.4756 24.9953 47.9679C24.9953 48.5364 24.9953 50.313 24.9953 50.313L24.7095 50.313C24.638 50.3841 24.4951 50.3841 24.3522 50.3841Z" fill="rgb(26,26,26)" fill-rule="nonzero" />
			</g>
		</g>
	</g>
</svg>
