<svg viewBox="0 0 80 83" xmlns="http://www.w3.org/2000/svg" xmlns:xlink="http://www.w3.org/1999/xlink" width="80.000000" height="83.000000" fill="none" customFrame="#000000">
	<defs>
		<clipPath id="clipPath_4">
			<rect width="80.000000" height="56.140350" x="0.000000" y="0.000000" fill="rgb(255,255,255)" />
		</clipPath>
	</defs>
	<g id="Group 428">
		<path id="goa" d="M31.3078 72.47C31.0558 71.9847 30.7058 71.6207 30.2578 71.378C29.8098 71.126 29.2918 71 28.7038 71C28.0598 71 27.4858 71.1447 26.9818 71.434C26.4778 71.7233 26.0812 72.134 25.7918 72.666C25.5118 73.198 25.3718 73.814 25.3718 74.514C25.3718 75.214 25.5118 75.8347 25.7918 76.376C26.0812 76.908 26.4778 77.3187 26.9818 77.608C27.4858 77.8973 28.0598 78.042 28.7038 78.042C29.5718 78.042 30.2765 77.7993 30.8178 77.314C31.3592 76.8287 31.6905 76.1707 31.8118 75.34L28.1578 75.34L28.1578 74.066L33.5198 74.066L33.5198 75.312C33.4172 76.068 33.1465 76.7633 32.7078 77.398C32.2785 78.0327 31.7138 78.5413 31.0138 78.924C30.3232 79.2973 29.5532 79.484 28.7038 79.484C27.7892 79.484 26.9538 79.274 26.1978 78.854C25.4418 78.4247 24.8398 77.832 24.3918 77.076C23.9532 76.32 23.7338 75.466 23.7338 74.514C23.7338 73.562 23.9532 72.708 24.3918 71.952C24.8398 71.196 25.4418 70.608 26.1978 70.188C26.9632 69.7587 27.7985 69.544 28.7038 69.544C29.7398 69.544 30.6592 69.8007 31.4618 70.314C32.2738 70.818 32.8618 71.5367 33.2258 72.47L31.3078 72.47ZM39.5319 79.498C38.6266 79.498 37.7913 79.288 37.0259 78.868C36.2699 78.4387 35.6679 77.846 35.2199 77.09C34.7813 76.3247 34.5619 75.466 34.5619 74.514C34.5619 73.562 34.7813 72.708 35.2199 71.952C35.6679 71.196 36.2699 70.608 37.0259 70.188C37.7913 69.7587 38.6266 69.544 39.5319 69.544C40.4466 69.544 41.2819 69.7587 42.0379 70.188C42.8033 70.608 43.4053 71.196 43.8439 71.952C44.2826 72.708 44.5019 73.562 44.5019 74.514C44.5019 75.466 44.2826 76.3247 43.8439 77.09C43.4053 77.846 42.8033 78.4387 42.0379 78.868C41.2819 79.288 40.4466 79.498 39.5319 79.498ZM39.5319 78.112C40.1759 78.112 40.7499 77.9673 41.2539 77.678C41.7579 77.3793 42.1499 76.9593 42.4299 76.418C42.7193 75.8673 42.8639 75.2327 42.8639 74.514C42.8639 73.7953 42.7193 73.1653 42.4299 72.624C42.1499 72.0827 41.7579 71.6673 41.2539 71.378C40.7499 71.0887 40.1759 70.944 39.5319 70.944C38.8879 70.944 38.3139 71.0887 37.8099 71.378C37.3059 71.6673 36.9093 72.0827 36.6199 72.624C36.3399 73.1653 36.1999 73.7953 36.1999 74.514C36.1999 75.2327 36.3399 75.8673 36.6199 76.418C36.9093 76.9593 37.3059 77.3793 37.8099 77.678C38.3139 77.9673 38.8879 78.112 39.5319 78.112ZM51.9385 77.412L47.8645 77.412L47.1645 79.4L45.4985 79.4L48.9845 69.656L50.8325 69.656L54.3185 79.4L52.6385 79.4L51.9385 77.412ZM51.4905 76.11L49.9085 71.588L48.3125 76.11L51.4905 76.11Z" fill="rgb(26,26,26)" fill-rule="nonzero" />
		<path id="goa" d="M31.3078 72.47C31.0558 71.9847 30.7058 71.6207 30.2578 71.378C29.8098 71.126 29.2918 71 28.7038 71C28.0598 71 27.4858 71.1447 26.9818 71.434C26.4778 71.7233 26.0812 72.134 25.7918 72.666C25.5118 73.198 25.3718 73.814 25.3718 74.514C25.3718 75.214 25.5118 75.8347 25.7918 76.376C26.0812 76.908 26.4778 77.3187 26.9818 77.608C27.4858 77.8973 28.0598 78.042 28.7038 78.042C29.5718 78.042 30.2765 77.7993 30.8178 77.314C31.3592 76.8287 31.6905 76.1707 31.8118 75.34L28.1578 75.34L28.1578 74.066L33.5198 74.066L33.5198 75.312C33.4172 76.068 33.1465 76.7633 32.7078 77.398C32.2785 78.0327 31.7138 78.5413 31.0138 78.924C30.3232 79.2973 29.5532 79.484 28.7038 79.484C27.7892 79.484 26.9538 79.274 26.1978 78.854C25.4418 78.4247 24.8398 77.832 24.3918 77.076C23.9532 76.32 23.7338 75.466 23.7338 74.514C23.7338 73.562 23.9532 72.708 24.3918 71.952C24.8398 71.196 25.4418 70.608 26.1978 70.188C26.9632 69.7587 27.7985 69.544 28.7038 69.544C29.7398 69.544 30.6592 69.8007 31.4618 70.314C32.2738 70.818 32.8618 71.5367 33.2258 72.47L31.3078 72.47ZM39.5319 79.498C38.6266 79.498 37.7913 79.288 37.0259 78.868C36.2699 78.4387 35.6679 77.846 35.2199 77.09C34.7813 76.3247 34.5619 75.466 34.5619 74.514C34.5619 73.562 34.7813 72.708 35.2199 71.952C35.6679 71.196 36.2699 70.608 37.0259 70.188C37.7913 69.7587 38.6266 69.544 39.5319 69.544C40.4466 69.544 41.2819 69.7587 42.0379 70.188C42.8033 70.608 43.4053 71.196 43.8439 71.952C44.2826 72.708 44.5019 73.562 44.5019 74.514C44.5019 75.466 44.2826 76.3247 43.8439 77.09C43.4053 77.846 42.8033 78.4387 42.0379 78.868C41.2819 79.288 40.4466 79.498 39.5319 79.498ZM39.5319 78.112C40.1759 78.112 40.7499 77.9673 41.2539 77.678C41.7579 77.3793 42.1499 76.9593 42.4299 76.418C42.7193 75.8673 42.8639 75.2327 42.8639 74.514C42.8639 73.7953 42.7193 73.1653 42.4299 72.624C42.1499 72.0827 41.7579 71.6673 41.2539 71.378C40.7499 71.0887 40.1759 70.944 39.5319 70.944C38.8879 70.944 38.3139 71.0887 37.8099 71.378C37.3059 71.6673 36.9093 72.0827 36.6199 72.624C36.3399 73.1653 36.1999 73.7953 36.1999 74.514C36.1999 75.2327 36.3399 75.8673 36.6199 76.418C36.9093 76.9593 37.3059 77.3793 37.8099 77.678C38.3139 77.9673 38.8879 78.112 39.5319 78.112ZM51.9385 77.412L47.8645 77.412L47.1645 79.4L45.4985 79.4L48.9845 69.656L50.8325 69.656L54.3185 79.4L52.6385 79.4L51.9385 77.412ZM51.4905 76.11L49.9085 71.588L48.3125 76.11L51.4905 76.11Z" fill="rgb(0,0,0)" fill-opacity="0.200000003" fill-rule="nonzero" />
		<g id="Frame" opacity="0.5" clip-path="url(#clipPath_4)" customFrame="url(#clipPath_4)">
			<rect id="Frame" width="80.000000" height="56.140350" x="0.000000" y="0.000000" fill="rgb(255,255,255)" fill-opacity="0" />
			<g id="Group">
				<path id="Vector" d="M38.0963 52.8689C35.8156 52.8689 33.7104 52.7812 31.6928 52.6057C29.8507 52.4303 28.0086 52.1671 26.3419 51.904C25.4647 51.7285 24.5875 51.5531 23.7104 51.3776C23.3595 51.2899 22.9209 51.2022 22.57 51.1145C22.1314 51.0268 22.0437 50.8513 22.0437 50.4127C22.0437 50.1496 22.1314 49.9741 22.1314 49.711C22.1314 49.4478 22.2191 49.0969 22.2191 48.8338C22.2191 48.5706 22.2191 48.3075 22.1314 48.132C21.956 47.9566 21.7805 47.9566 21.4297 47.9566C19.5875 47.9566 17.7454 47.9566 15.9911 47.9566L4.93843 47.9566C4.85071 47.9566 4.76299 47.9566 4.67527 47.9566C4.49983 47.6934 4.41211 47.6057 4.41211 47.3426C4.49983 47.0794 4.58755 46.9917 4.76299 46.9917L5.20158 46.9917L11.956 46.9917C15.2016 46.9917 18.4472 46.9917 21.6051 46.9917C22.1314 46.9917 22.3946 46.7285 22.3946 46.2899C22.57 44.2724 22.7454 42.2548 22.9209 40.2373L23.184 37.4303C23.2718 36.1145 23.4472 34.7987 23.5349 33.4829C23.6226 32.6934 23.6226 31.904 23.7104 31.1145C23.7981 30.5005 23.7981 29.7987 23.8858 29.1847C23.9735 28.4829 23.9735 27.7812 24.0612 27.1671C24.149 25.8513 24.2367 24.5355 24.3244 23.3075C24.4121 21.9917 24.4121 20.6759 24.4998 19.3601C24.4998 18.7461 24.4998 18.0443 24.5875 17.4303C24.5875 17.2548 24.5875 17.0794 24.4121 16.9917C24.3244 16.904 24.149 16.8162 23.9735 16.8162C23.7981 16.8162 23.7104 16.8162 23.6226 16.8162C23.5349 16.8162 23.3595 16.8162 23.2718 16.8162C22.9209 16.8162 22.9209 16.6408 22.9209 16.5531C22.9209 16.2899 23.0086 16.1145 23.184 16.1145L27.3068 14.5355C27.3946 14.5355 27.4823 14.4478 27.57 14.4478C27.7454 14.3601 27.9209 14.3601 28.184 14.1847C28.3595 14.0969 28.5349 13.8338 28.5349 13.5706C28.5349 13.0443 28.5349 12.6057 28.5349 12.0794L28.5349 11.3776C28.5349 10.9391 28.6226 10.7636 29.149 10.7636C29.2367 10.7636 29.3244 10.7636 29.4121 10.7636C29.4998 10.7636 29.5875 10.7636 29.6753 10.7636C29.763 10.7636 29.8507 10.7636 29.8507 10.7636C30.0261 10.7636 30.2016 10.7636 30.2893 10.7636C31.2542 10.7636 32.0437 10.4127 32.7454 10.0619C32.9209 9.97414 33.184 9.97414 33.4472 9.97414C33.6226 9.97414 33.7981 9.97414 33.9735 9.97414L34.0612 9.97414C34.3244 9.97414 34.4998 9.97414 34.5875 9.97414C34.763 9.97414 35.0261 9.97414 35.1139 9.7987C35.2893 9.62326 35.2893 9.27238 35.2893 8.74607C35.2016 7.43028 35.8156 6.37765 37.0437 5.50045C37.3068 5.32502 37.57 5.06186 37.4823 4.62326C37.4823 4.44782 37.4823 4.18466 37.4823 3.92151C37.4823 3.65835 37.6577 3.57063 37.8332 3.48291C38.0086 3.48291 38.0963 3.57063 38.184 3.65835C38.184 3.74607 38.2718 3.74607 38.2718 3.83379C38.0963 4.88642 38.7104 5.41273 39.4121 5.93905C40.2893 6.72852 40.7279 7.60572 40.6402 8.65835C40.6402 9.18466 40.6402 9.7987 40.6402 10.325C40.6402 10.6759 40.6402 11.0268 40.6402 11.4654C40.6402 11.6408 40.6402 11.904 40.8156 12.0794C40.9033 12.1671 41.0788 12.2548 41.3419 12.2548C41.6928 12.2548 41.8682 12.2548 42.1314 12.2548L43.0963 12.2548L43.4472 12.2548C43.7104 12.2548 43.7981 12.3426 43.8858 12.6057C43.9735 12.7812 44.1489 13.0443 44.3244 13.0443C45.4647 13.4829 46.6928 14.0969 47.57 15.1496C47.9209 15.6759 48.2718 16.2022 48.5349 16.8162C48.7104 17.1671 48.8858 17.4303 49.4121 17.4303C49.763 17.4303 50.1139 17.4303 50.4647 17.518C50.6402 17.518 50.9033 17.518 51.0788 17.6057C51.3419 17.6057 51.4296 17.6934 51.4296 17.9566L51.5174 18.7461C51.6051 19.6233 51.6928 20.5005 51.7805 21.3776C52.0437 23.9215 52.3068 26.4654 52.57 29.0969L52.7454 30.5005C52.7454 30.6759 52.7454 30.7636 52.7454 30.9391L52.7454 31.2022C52.8332 31.9917 52.9209 32.0794 53.7104 32.0794L61.6928 32.0794L62.6577 32.0794C62.9209 32.0794 63.0963 32.0794 63.3595 32.0794C63.6226 32.0794 63.8858 32.1671 63.9735 32.2548C66.0788 33.9215 68.184 35.5005 70.2893 37.1671L71.7805 38.3952L71.8682 38.4829L71.8682 38.5706C71.8682 38.6583 71.956 38.9215 71.956 38.9215C71.956 39.0092 71.6928 39.0969 71.6051 39.1847C71.2542 39.1847 70.9911 39.1847 70.6402 39.1847L69.1489 39.1847L69.1489 47.0794L73.7981 47.0794C74.5875 47.0794 74.5875 47.3426 74.5875 47.518C74.5875 47.6934 74.4998 47.7812 74.4998 47.7812C74.4121 47.8689 74.2367 47.9566 73.7981 47.9566C72.9209 47.9566 72.0437 47.9566 71.1665 47.9566C70.2893 47.9566 69.4121 47.9566 68.5349 47.9566C67.3068 47.9566 66.1665 47.9566 64.9384 47.9566C64.763 47.9566 64.6753 47.9566 64.4998 47.9566C63.0086 47.9566 61.5174 48.132 60.1139 48.3075L59.4121 48.3952C59.0612 48.3952 58.7981 48.4829 58.4472 48.4829C57.4823 48.5706 56.5174 48.7461 55.5525 48.7461C55.377 48.7461 55.2016 48.7461 54.9384 48.7461C54.8507 48.7461 54.763 48.7461 54.6753 48.7461L54.3244 48.7461L54.4121 49.5355C54.4121 49.8864 54.4998 50.2373 54.4998 50.5882C54.4998 50.9391 54.4121 51.0268 54.0612 51.1145C51.8682 51.8162 49.5875 52.1671 47.6577 52.3426C44.8507 52.6934 41.956 52.8689 38.7981 52.8689L38.0963 52.8689ZM23.2718 46.6408C23.184 47.6057 23.0963 48.6584 22.9209 49.6233C22.8332 50.0619 23.0963 50.325 23.5349 50.4127C23.7981 50.4127 24.0612 50.5005 24.3244 50.5882C24.5875 50.6759 24.763 50.6759 25.0261 50.7636C25.377 50.8513 25.7279 50.9391 26.1665 50.9391C27.2191 51.1145 28.2718 51.2899 29.2367 51.4654C31.3419 51.6408 33.4472 51.8162 35.4647 51.904L35.5525 51.904C36.5174 51.9917 37.4823 51.9917 38.5349 51.9917C40.4647 51.9917 42.57 51.904 45.1139 51.6408C47.3069 51.4654 50.2016 51.1145 53.0086 50.4127C53.4472 50.325 53.6226 50.0619 53.5349 49.6233L53.4472 48.3952C53.2718 46.7285 53.0963 45.1496 52.9209 43.4829C52.8332 42.8689 52.57 42.6934 52.0437 42.6934C48.8858 42.6934 45.7279 42.6934 42.6577 42.6934L35.9033 42.6934C33.6226 42.6934 23.5349 42.6934 23.5349 42.6934C23.5349 42.6934 23.3595 45.8513 23.2718 46.6408ZM55.2016 47.7812C55.2893 47.7812 55.4647 47.7812 55.5525 47.7812L55.6402 47.7812C55.8156 47.7812 55.9911 47.6934 56.0788 47.6057C56.2542 47.4303 56.2542 47.2548 56.2542 47.0794L56.2542 46.5531C56.2542 45.939 56.2542 45.325 56.2542 44.711C56.3419 43.6583 55.8156 43.132 55.2016 42.7812C55.0261 42.6057 54.763 42.518 54.5876 42.3426L54.2367 42.0794L53.7981 42.3426L54.3244 47.7812L55.2016 47.7812ZM57.1314 47.7812L57.7454 47.6934C58.0086 47.6934 58.2718 47.6057 58.6226 47.6057L59.5875 47.518C60.2893 47.4303 61.0788 47.3426 61.7805 47.2548C61.956 47.2548 62.2191 47.0794 62.3068 46.8162C62.3068 46.4654 62.3068 46.0268 62.3068 45.6759L62.3068 45.0619L62.0437 45.0619C61.8683 45.0619 61.6051 45.1496 61.4297 45.1496C60.9911 45.2373 60.6402 45.2373 60.2016 45.2373C59.9384 45.2373 59.6753 45.2373 59.4121 45.325C59.149 45.325 58.8858 45.4127 58.6226 45.4127C58.184 45.4127 57.8332 45.325 57.57 45.1496L57.2191 44.8864L57.2191 47.7812L57.1314 47.7812ZM60.2893 39.1847C60.2016 39.1847 60.1139 39.1847 60.0261 39.2724L59.8507 39.2724L59.4121 39.3601L59.8507 39.7987C59.9384 39.8864 59.9384 39.8864 60.0261 39.9741L61.1665 41.0268C62.3068 41.9917 63.4472 43.0443 64.5875 44.0969C64.6753 44.1847 64.763 44.4478 64.763 44.5355C64.763 44.6233 64.5876 44.7987 64.3244 44.8864C64.2367 44.8864 64.1489 44.8864 63.9735 44.8864C63.8858 44.8864 63.7104 44.8864 63.6226 44.8864C63.4472 44.8864 63.184 45.0619 63.0963 45.325C63.0963 45.6759 63.0963 46.0268 63.0963 46.3776L63.0963 46.9917L68.184 46.9917L68.2718 46.8162C68.2718 46.7285 68.3595 46.7285 68.3595 46.6408C68.3595 46.6408 68.3595 41.3776 68.3595 39.711C68.3595 39.5355 68.2718 39.3601 68.184 39.2724C68.0963 39.1847 67.9209 39.0969 67.7454 39.0969L60.2893 39.1847ZM54.149 36.5531C54.0612 36.5531 53.8858 36.5531 53.7981 36.5531C53.5349 36.6408 53.184 36.6408 53.2718 37.1671C53.2718 37.518 53.3595 37.8689 53.3595 38.3075C53.4472 38.8338 53.4472 39.2724 53.5349 39.7987C53.5349 40.0619 53.7104 40.4127 53.8858 40.5882C54.763 41.3776 55.6402 42.1671 56.5174 42.9566C57.0437 43.3952 57.57 43.8338 58.0963 44.2724C58.2718 44.3601 58.4472 44.4478 58.6226 44.4478C59.6753 44.3601 60.7279 44.2724 61.7805 44.1847L62.9209 44.0969L62.8332 43.8338L62.8332 43.7461L62.7454 43.5706L61.7805 42.6934C60.9911 41.9917 60.2016 41.2022 59.4121 40.5005C58.7104 39.8864 58.0963 39.3601 57.3946 38.7461C56.8683 38.3075 56.3419 37.8689 55.8156 37.4303L55.7279 37.3426C55.2893 36.9917 54.8507 36.5531 54.149 36.5531ZM23.8858 40.0619C23.8858 40.4127 23.7981 40.6759 23.7981 41.0268C23.7981 41.3776 23.7104 41.6408 23.8858 41.7285C24.0612 41.8162 24.2367 41.904 24.5875 41.904L52.2191 41.904C52.4823 41.904 52.57 41.8162 52.6577 41.7285C52.7454 41.6408 52.8332 41.4654 52.7454 41.2022C52.6577 40.5882 52.6577 39.9741 52.57 39.4478L52.3946 37.1671C52.2191 35.6759 52.1314 34.1847 51.956 32.6934C51.8683 31.6408 51.6928 31.5531 50.6402 31.5531L41.0788 31.4654C40.9033 31.4654 40.8156 31.4654 40.7279 31.4654C40.5525 31.4654 40.4647 31.4654 40.2893 31.5531C40.0261 31.5531 39.763 31.6408 39.5875 31.6408C36.0788 31.6408 32.57 31.6408 29.149 31.6408L25.377 31.6408L25.2893 31.6408C25.2016 31.6408 25.2016 31.6408 25.1139 31.6408C25.0261 31.6408 24.9384 31.6408 24.8507 31.7285C24.763 31.7285 24.4121 31.9917 24.4121 32.2548C24.4121 32.6057 24.4121 32.9566 24.4121 33.3952L24.4121 34.0969L28.4472 34.0969C28.9735 34.0969 29.4998 34.0969 30.0261 34.0969C30.1139 34.0969 30.377 34.1847 30.4647 34.3601C30.5525 34.4478 30.4647 34.711 30.4647 34.711C30.377 34.7987 30.1139 34.8864 29.9384 34.8864C29.0612 34.8864 28.184 34.8864 27.3068 34.8864C26.5174 34.8864 24.8507 34.8864 24.8507 34.8864C24.6753 34.8864 24.149 34.8864 24.0612 35.5005C24.0612 36.0268 23.9735 36.5531 23.9735 37.0794L23.8858 38.132C23.8858 38.2197 23.8858 38.3075 23.8858 38.3952L23.9735 38.6584L25.5525 38.6584L26.4297 38.6584C26.6051 38.6584 26.7805 38.7461 26.7805 38.9215C26.8682 39.0969 26.7805 39.2724 26.6051 39.3601C26.5174 39.4478 26.3419 39.4478 26.1665 39.4478C25.8156 39.4478 25.4647 39.4478 25.2016 39.4478L23.7981 39.4478L23.8858 40.0619ZM56.6928 32.8689C56.6051 32.8689 56.5174 32.8689 56.4296 32.9566L55.8156 33.132L57.3946 34.5355C58.5349 35.5882 59.6753 36.5531 60.8156 37.518C60.9033 37.6057 60.9911 37.6057 60.9911 37.6934C61.2542 37.9566 61.6051 38.3075 62.0437 38.3075C62.3068 38.3952 62.6577 38.3952 63.0963 38.3952C63.3595 38.3952 63.6226 38.3952 63.7981 38.3952C64.0612 38.3952 64.3244 38.3952 64.5875 38.3952L65.1139 38.3952L64.8507 37.8689C64.8507 37.7812 64.763 37.7812 64.763 37.7812C64.3244 37.4303 63.8858 36.9917 63.3595 36.6408C62.3068 35.7636 61.2542 34.8864 60.2016 34.0092C59.4121 33.2197 58.5349 32.8689 57.6577 32.8689C57.4823 32.8689 57.3068 32.8689 57.0437 32.9566L56.956 32.9566L56.7805 32.9566C56.6928 32.8689 56.6928 32.8689 56.6928 32.8689ZM54.6753 35.7636C55.0261 35.7636 55.377 35.8513 55.6402 36.1145C55.9033 36.2899 56.0788 36.4654 56.3419 36.7285C56.6928 37.0794 57.1314 37.4303 57.4823 37.7812C57.9209 38.2198 58.3595 38.3075 58.7981 38.3075C58.9735 38.3075 59.1489 38.3075 59.3244 38.3075C59.4998 38.3075 59.5875 38.3075 59.763 38.3075C59.8507 38.3075 59.8507 38.3075 59.9384 38.3075L60.6402 38.3952L60.0261 37.8689C59.149 37.0794 58.2718 36.3777 57.4823 35.5882C56.6051 34.7987 55.8156 34.0969 54.9384 33.3075C54.5875 32.9566 54.2367 32.8689 53.7104 32.8689C53.5349 32.8689 53.3595 32.8689 53.184 32.9566L53.0086 32.9566L53.0086 33.5706C53.0086 33.8338 53.0086 34.1847 53.0963 34.4478C53.184 35.4127 53.2718 35.8513 54.2367 35.8513C54.3244 35.7636 54.6753 35.7636 54.6753 35.7636ZM61.956 32.8689C61.7805 32.8689 61.5174 32.8689 61.3419 32.8689L60.377 32.8689L60.9911 33.3952C61.0788 33.4829 61.0788 33.4829 61.1665 33.5706C63.0086 35.0619 64.763 36.5531 66.6051 38.132C66.6928 38.2197 66.956 38.3075 67.0437 38.3075C67.4823 38.3075 67.9209 38.3075 68.3595 38.3075L70.1139 38.3075L69.6753 37.7812C69.5875 37.6934 69.5875 37.6934 69.4998 37.6057C68.9735 37.1671 68.4472 36.8162 67.9209 36.3776C66.7805 35.5005 65.5525 34.5355 64.4121 33.5706C63.6226 32.9566 62.8332 32.8689 61.956 32.8689ZM42.4823 30.7636C45.377 30.7636 48.184 30.7636 51.0788 30.7636C51.2542 30.7636 51.5174 30.7636 51.6928 30.5882C51.8683 30.4127 51.8682 30.2373 51.7805 29.9741C51.6928 28.8338 51.5174 27.6057 51.4296 26.4654L51.3419 25.0619L51.2542 24.1847C51.1665 23.5706 51.1665 22.8689 51.0788 22.2548C50.9911 21.5531 50.5525 21.3776 50.1139 21.3776C48.7104 21.3776 47.3946 21.2899 45.9911 21.2899C44.8507 21.2899 43.6226 21.2022 42.4823 21.2022C40.4647 21.1145 38.4472 21.1145 36.4297 21.1145C33.184 21.1145 30.0261 21.2022 26.956 21.2899C26.5174 21.2899 26.0788 21.3776 25.7279 21.3776C25.5525 21.3776 25.2893 21.6408 25.2016 21.8162C25.2016 22.1671 25.2016 22.4303 25.2016 22.7812L25.2016 23.3952L26.6928 23.3952C26.956 23.3952 27.2191 23.3952 27.57 23.3952C28.0963 23.3952 28.0963 23.5706 28.0963 23.8338C28.0963 24.0092 28.0963 24.2724 27.57 24.2724L26.5174 24.2724C26.2542 24.2724 25.9911 24.2724 25.7279 24.2724C25.2016 24.2724 25.0261 24.4478 25.0261 24.9741C24.9384 25.5882 24.9384 26.2899 24.8507 26.904C24.763 27.4303 24.763 28.0443 24.6753 28.5706C24.6753 29.0092 24.5875 29.4478 24.5875 29.8864L24.5875 30.7636L42.4823 30.7636ZM48.8858 18.5706C48.7981 19.2724 48.7104 19.7987 48.9735 20.0619C49.2367 20.325 49.5875 20.4127 50.2893 20.4127C50.377 20.4127 50.377 20.4127 50.4647 20.4127L50.8156 20.325L50.7279 19.711C50.7279 19.3601 50.6402 19.0969 50.6402 18.7461C50.6402 18.5706 50.377 18.3075 50.2016 18.3075C50.0261 18.3075 49.8507 18.3075 49.6753 18.3075L48.8858 18.3075L48.8858 18.5706ZM25.377 18.9215C25.377 19.1847 25.377 19.5355 25.377 19.7987C25.377 19.8864 25.377 20.1496 25.5525 20.2373C25.6402 20.325 25.8156 20.4127 25.9911 20.4127C27.8332 20.325 29.5875 20.2373 31.4297 20.1496C31.7805 20.1496 31.956 19.9741 31.956 19.5355C31.956 18.8338 31.956 18.132 31.956 17.3426C31.956 17.1671 31.956 16.9917 31.7805 16.904C31.6051 16.904 31.5174 16.8162 31.2542 16.8162C29.5875 16.8162 27.9209 16.7285 26.2542 16.7285L25.9033 16.7285C25.6402 16.7285 25.4647 16.8162 25.377 16.904C25.2893 16.9917 25.2016 17.1671 25.2016 17.4303C25.2016 17.6934 25.2016 17.9566 25.2016 18.2198L25.2016 18.8338L25.377 18.9215ZM46.6051 18.3075L46.4297 18.3952L46.4297 18.5706L46.4297 20.325L47.1314 20.325C47.2191 20.325 47.3946 20.325 47.4823 20.325C47.6577 20.325 48.0086 20.1496 48.0086 19.8864L48.0086 19.6233C48.0086 19.2724 48.0086 18.8338 47.9209 18.4829C47.8332 18.2198 47.57 18.2198 47.1314 18.2198C47.0437 18.2198 46.8682 18.2198 46.7805 18.2198L46.6928 18.2198L46.6051 18.3075ZM44.763 20.2373C44.8507 20.2373 44.8507 20.2373 44.9384 20.2373L45.0261 20.2373C45.2016 20.2373 45.2893 20.1496 45.377 20.0619C45.4647 19.9741 45.5525 19.7987 45.5525 19.6233C45.5525 19.5355 45.5525 19.3601 45.5525 19.2724C45.5525 19.0969 45.5525 18.8338 45.5525 18.6583C45.5525 18.4829 45.377 18.2198 45.2016 18.132C44.9384 18.0443 44.763 18.0443 44.6753 18.0443C43.9735 18.0443 43.9735 18.7461 43.9735 19.0092L43.9735 19.2724C43.9735 19.3601 43.9735 19.4478 43.9735 19.5355C43.9735 19.7987 43.9735 19.9741 44.1489 20.1496C44.2367 20.2373 44.4121 20.325 44.6753 20.325C44.5876 20.325 44.763 20.2373 44.763 20.2373ZM40.2893 20.1496C40.9911 20.1496 41.6928 20.1496 42.3946 20.1496C42.57 20.1496 42.8332 20.1496 42.9209 19.9741C43.0963 19.7987 43.0963 19.6233 43.0963 19.4478C43.0963 18.7461 43.0963 18.0443 43.0963 17.4303C43.0963 17.2548 43.0086 17.0794 42.9209 16.9917C42.8332 16.904 42.6577 16.8162 42.4823 16.8162C41.7805 16.8162 41.1665 16.8162 40.4647 16.8162C39.8507 16.8162 38.6226 16.8162 38.6226 16.8162C38.4472 16.8162 38.2718 16.904 38.184 16.9917C38.0086 17.1671 38.0086 17.3426 38.0086 17.518C38.0086 17.9566 38.0086 18.3075 38.0086 18.7461C38.0086 19.0969 37.8332 19.0969 37.6577 19.0969C37.2191 19.0969 36.6928 19.0969 36.2542 19.0969C35.7279 19.0969 35.2893 19.0969 34.763 19.0969C34.5875 19.0969 34.4998 19.0969 34.4998 18.7461C34.4998 18.5706 34.4998 18.3952 34.4998 18.2198C34.4998 18.132 34.4998 17.9566 34.4998 17.8689C34.4998 17.6934 34.4998 17.6057 34.4998 17.518C34.4998 17.2548 34.4998 17.0794 34.4121 16.9917C34.149 16.8162 33.9735 16.8162 33.5349 16.8162L33.3595 16.8162C33.0963 16.8162 32.9209 16.904 32.8332 16.9917C32.6577 17.1671 32.6577 17.3426 32.6577 17.518C32.6577 18.132 32.6577 18.8338 32.6577 19.4478C32.6577 19.6233 32.6577 19.7987 32.8332 19.9741C33.0086 20.1496 33.184 20.1496 33.3595 20.1496C34.0612 20.1496 34.763 20.1496 35.4647 20.1496L37.57 20.1496L37.8332 20.2373L40.2893 20.1496ZM35.2893 18.2198L37.1314 18.2198L37.1314 17.9566L37.1314 17.7812C37.1314 17.6057 37.1314 17.4303 37.1314 17.2548C37.1314 17.0794 36.8682 16.8162 36.6928 16.8162C36.5174 16.8162 36.3419 16.8162 36.1665 16.8162L35.2893 16.8162L35.2893 18.2198ZM43.8858 14.8864C43.8858 15.5005 43.8858 16.1145 43.8858 16.7285C43.8858 16.904 44.1489 17.1671 44.4121 17.2548C45.2016 17.3426 45.9911 17.3426 46.7805 17.4303L47.7454 17.518L47.6577 17.2548C47.3946 15.8513 45.2893 14.3601 44.1489 14.2724L43.8858 14.2724L43.8858 14.8864ZM41.3419 16.0268C41.6928 16.0268 42.0437 16.0268 42.3946 16.0268C42.57 16.0268 42.8332 16.0268 42.9209 15.8513C43.0086 15.7636 43.0963 15.5882 43.0963 15.325C43.0963 14.7987 43.0963 14.3601 43.0963 13.9215C43.0963 13.7461 43.0963 13.4829 42.9209 13.3075C42.7454 13.132 42.57 13.132 42.3068 13.132C40.5525 13.132 38.7104 13.132 36.956 13.132L33.3595 13.132C33.0963 13.132 32.9209 13.132 32.6577 13.2198C31.5174 13.6583 30.377 14.0969 29.2367 14.5355C28.7981 14.711 28.2718 14.8864 27.8332 15.1496L26.956 15.5005L27.0437 15.8513L27.2191 15.939L27.3068 15.939C27.3946 15.939 27.4823 15.939 27.57 15.939L40.4647 15.939L41.3419 16.0268ZM29.2367 11.7285L29.2367 13.7461L31.956 12.7812C32.2191 12.6934 32.4823 12.6057 32.57 12.3426C32.6577 12.0794 32.57 11.904 32.4823 11.7285L32.3946 11.5531L29.2367 11.7285ZM34.3244 10.8513C34.1489 10.8513 33.9735 10.8513 33.7981 10.8513C33.6226 10.8513 33.2718 11.1145 33.2718 11.3776C33.2718 12.2548 33.5349 12.2548 33.6226 12.3426C33.7981 12.3426 34.0612 12.4303 34.2367 12.4303C34.4998 12.4303 34.6753 12.4303 34.9384 12.3426C35.2016 12.2548 35.2016 11.9917 35.2016 11.6408C35.2016 11.5531 35.2016 11.4654 35.2016 11.3776C35.2016 11.2899 35.2016 11.2022 35.2016 11.2022L35.1139 10.8513L34.3244 10.8513ZM36.0788 12.3426L37.57 12.3426C38.184 12.3426 38.7104 12.3426 39.3244 12.3426C39.4998 12.3426 39.763 12.1671 39.763 11.9917C39.8507 11.6408 39.8507 11.3776 39.763 11.1145C39.5875 10.9391 39.3244 10.8513 38.9735 10.8513L36.0788 10.8513L36.0788 12.3426ZM36.8682 8.57063C36.6051 8.57063 36.3419 8.57063 36.1665 8.74607C35.9911 8.92151 36.0788 9.18466 36.0788 9.53554C36.0788 9.62326 36.0788 9.71098 36.0788 9.71098L36.1665 9.97414L39.763 9.97414L39.763 8.57063L36.8682 8.57063ZM37.8332 6.20221C37.3068 6.20221 36.6928 6.81624 36.6051 7.43028L36.5174 7.69344L39.4121 7.69344L39.3244 7.34256C39.0612 6.72852 38.4472 6.20221 37.8332 6.20221Z" fill="rgb(26,26,26)" fill-rule="evenodd" />
			</g>
		</g>
	</g>
</svg>
