<svg viewBox="0 0 80 83" xmlns="http://www.w3.org/2000/svg" xmlns:xlink="http://www.w3.org/1999/xlink" width="80.000000" height="83.000000" fill="none" customFrame="#000000">
	<defs>
		<clipPath id="clipPath_5">
			<rect width="80.000000" height="56.140350" x="0.000000" y="0.000000" fill="rgb(255,255,255)" />
		</clipPath>
	</defs>
	<g id="Group 426">
		<path id="Kochi" d="M23.7977 79.4L20.0317 75.046L20.0317 79.4L18.4357 79.4L18.4357 69.67L20.0317 69.67L20.0317 74.108L23.8117 69.67L25.8137 69.67L21.5857 74.542L25.8837 79.4L23.7977 79.4ZM31.7331 79.498C30.8278 79.498 29.9925 79.288 29.2271 78.868C28.4711 78.4387 27.8691 77.846 27.4211 77.09C26.9825 76.3247 26.7631 75.466 26.7631 74.514C26.7631 73.562 26.9825 72.708 27.4211 71.952C27.8691 71.196 28.4711 70.608 29.2271 70.188C29.9925 69.7587 30.8278 69.544 31.7331 69.544C32.6478 69.544 33.4831 69.7587 34.2391 70.188C35.0045 70.608 35.6065 71.196 36.0451 71.952C36.4838 72.708 36.7031 73.562 36.7031 74.514C36.7031 75.466 36.4838 76.3247 36.0451 77.09C35.6065 77.846 35.0045 78.4387 34.2391 78.868C33.4831 79.288 32.6478 79.498 31.7331 79.498ZM31.7331 78.112C32.3771 78.112 32.9511 77.9673 33.4551 77.678C33.9591 77.3793 34.3511 76.9593 34.6311 76.418C34.9205 75.8673 35.0651 75.2327 35.0651 74.514C35.0651 73.7953 34.9205 73.1653 34.6311 72.624C34.3511 72.0827 33.9591 71.6673 33.4551 71.378C32.9511 71.0887 32.3771 70.944 31.7331 70.944C31.0891 70.944 30.5151 71.0887 30.0111 71.378C29.5071 71.6673 29.1105 72.0827 28.8211 72.624C28.5411 73.1653 28.4011 73.7953 28.4011 74.514C28.4011 75.2327 28.5411 75.8673 28.8211 76.418C29.1105 76.9593 29.5071 77.3793 30.0111 77.678C30.5151 77.9673 31.0891 78.112 31.7331 78.112ZM37.7416 74.514C37.7416 73.562 37.961 72.708 38.3996 71.952C38.8476 71.196 39.4496 70.608 40.2056 70.188C40.971 69.7587 41.8063 69.544 42.7116 69.544C43.7476 69.544 44.667 69.8007 45.4696 70.314C46.2816 70.818 46.8696 71.5367 47.2336 72.47L45.3156 72.47C45.0636 71.9567 44.7136 71.574 44.2656 71.322C43.8176 71.07 43.2996 70.944 42.7116 70.944C42.0676 70.944 41.4936 71.0887 40.9896 71.378C40.4856 71.6673 40.089 72.0827 39.7996 72.624C39.5196 73.1653 39.3796 73.7953 39.3796 74.514C39.3796 75.2327 39.5196 75.8627 39.7996 76.404C40.089 76.9453 40.4856 77.3653 40.9896 77.664C41.4936 77.9533 42.0676 78.098 42.7116 78.098C43.2996 78.098 43.8176 77.972 44.2656 77.72C44.7136 77.468 45.0636 77.0853 45.3156 76.572L47.2336 76.572C46.8696 77.5053 46.2816 78.224 45.4696 78.728C44.667 79.232 43.7476 79.484 42.7116 79.484C41.797 79.484 40.9616 79.274 40.2056 78.854C39.4496 78.4247 38.8476 77.832 38.3996 77.076C37.961 76.32 37.7416 75.466 37.7416 74.514ZM56.8718 69.67L56.8718 79.4L55.2758 79.4L55.2758 75.144L50.6978 75.144L50.6978 79.4L49.1018 79.4L49.1018 69.67L50.6978 69.67L50.6978 73.842L55.2758 73.842L55.2758 69.67L56.8718 69.67ZM60.5689 69.67L60.5689 79.4L58.9729 79.4L58.9729 69.67L60.5689 69.67Z" fill="rgb(26,26,26)" fill-rule="nonzero" />
		<path id="Kochi" d="M23.7977 79.4L20.0317 75.046L20.0317 79.4L18.4357 79.4L18.4357 69.67L20.0317 69.67L20.0317 74.108L23.8117 69.67L25.8137 69.67L21.5857 74.542L25.8837 79.4L23.7977 79.4ZM31.7331 79.498C30.8278 79.498 29.9925 79.288 29.2271 78.868C28.4711 78.4387 27.8691 77.846 27.4211 77.09C26.9825 76.3247 26.7631 75.466 26.7631 74.514C26.7631 73.562 26.9825 72.708 27.4211 71.952C27.8691 71.196 28.4711 70.608 29.2271 70.188C29.9925 69.7587 30.8278 69.544 31.7331 69.544C32.6478 69.544 33.4831 69.7587 34.2391 70.188C35.0045 70.608 35.6065 71.196 36.0451 71.952C36.4838 72.708 36.7031 73.562 36.7031 74.514C36.7031 75.466 36.4838 76.3247 36.0451 77.09C35.6065 77.846 35.0045 78.4387 34.2391 78.868C33.4831 79.288 32.6478 79.498 31.7331 79.498ZM31.7331 78.112C32.3771 78.112 32.9511 77.9673 33.4551 77.678C33.9591 77.3793 34.3511 76.9593 34.6311 76.418C34.9205 75.8673 35.0651 75.2327 35.0651 74.514C35.0651 73.7953 34.9205 73.1653 34.6311 72.624C34.3511 72.0827 33.9591 71.6673 33.4551 71.378C32.9511 71.0887 32.3771 70.944 31.7331 70.944C31.0891 70.944 30.5151 71.0887 30.0111 71.378C29.5071 71.6673 29.1105 72.0827 28.8211 72.624C28.5411 73.1653 28.4011 73.7953 28.4011 74.514C28.4011 75.2327 28.5411 75.8673 28.8211 76.418C29.1105 76.9593 29.5071 77.3793 30.0111 77.678C30.5151 77.9673 31.0891 78.112 31.7331 78.112ZM37.7416 74.514C37.7416 73.562 37.961 72.708 38.3996 71.952C38.8476 71.196 39.4496 70.608 40.2056 70.188C40.971 69.7587 41.8063 69.544 42.7116 69.544C43.7476 69.544 44.667 69.8007 45.4696 70.314C46.2816 70.818 46.8696 71.5367 47.2336 72.47L45.3156 72.47C45.0636 71.9567 44.7136 71.574 44.2656 71.322C43.8176 71.07 43.2996 70.944 42.7116 70.944C42.0676 70.944 41.4936 71.0887 40.9896 71.378C40.4856 71.6673 40.089 72.0827 39.7996 72.624C39.5196 73.1653 39.3796 73.7953 39.3796 74.514C39.3796 75.2327 39.5196 75.8627 39.7996 76.404C40.089 76.9453 40.4856 77.3653 40.9896 77.664C41.4936 77.9533 42.0676 78.098 42.7116 78.098C43.2996 78.098 43.8176 77.972 44.2656 77.72C44.7136 77.468 45.0636 77.0853 45.3156 76.572L47.2336 76.572C46.8696 77.5053 46.2816 78.224 45.4696 78.728C44.667 79.232 43.7476 79.484 42.7116 79.484C41.797 79.484 40.9616 79.274 40.2056 78.854C39.4496 78.4247 38.8476 77.832 38.3996 77.076C37.961 76.32 37.7416 75.466 37.7416 74.514ZM56.8718 69.67L56.8718 79.4L55.2758 79.4L55.2758 75.144L50.6978 75.144L50.6978 79.4L49.1018 79.4L49.1018 69.67L50.6978 69.67L50.6978 73.842L55.2758 73.842L55.2758 69.67L56.8718 69.67ZM60.5689 69.67L60.5689 79.4L58.9729 79.4L58.9729 69.67L60.5689 69.67Z" fill="rgb(0,0,0)" fill-opacity="0.200000003" fill-rule="nonzero" />
		<g id="Frame" opacity="0.5" clip-path="url(#clipPath_5)" customFrame="url(#clipPath_5)">
			<rect id="Frame" width="80.000000" height="56.140350" x="0.000000" y="0.000000" fill="rgb(255,255,255)" fill-opacity="0" />
			<g id="Group">
				<path id="Vector" d="M39.5609 5C36.6764 5 33.856 5.32051 31.0996 5.89741C30.9714 5.89741 30.7791 6.15382 30.7791 6.28202L30.7791 7.62814C29.2407 8.01275 27.7664 8.39735 26.292 8.97426C25.651 8.97426 25.2023 8.39735 25.2023 7.75634C25.2023 7.49994 25.0741 7.37174 24.8177 7.37174C24.5613 7.37174 24.4331 7.49994 24.4331 7.75634C24.4331 8.71786 25.1382 9.48707 26.0356 9.67937L26.0356 19.2945L25.2664 19.2945C25.2664 14.4869 22.7024 10.2563 18.5358 8.01275C18.8563 7.94865 19.2409 7.88455 19.6255 7.88455C21.164 7.88455 22.5742 8.78196 23.2152 10.1281C23.2793 10.2563 23.4716 10.3845 23.5998 10.3845L23.728 10.3845C23.8562 10.3204 24.0485 10.064 23.8562 9.80758C23.087 8.14095 21.3563 7.11533 19.5614 7.11533C19.1127 7.11533 18.5999 7.17943 18.1512 7.37174C19.4332 6.66663 20.8435 6.41022 22.3819 6.66663C22.6383 6.66663 22.7665 6.60253 22.8306 6.34612C22.8947 6.08972 22.7665 5.96151 22.5101 5.89741C20.4588 5.57691 18.2794 6.15382 16.6769 7.43584C16.6128 7.43584 16.6128 7.49994 16.6128 7.49994C16.0359 7.56404 15.5231 7.88455 15.1385 8.26915C14.4975 8.91016 14.1128 9.80758 14.1128 10.7691C14.1128 11.0255 14.2411 11.1537 14.4975 11.1537C14.7539 11.1537 14.8821 11.0255 14.8821 10.7691C14.8821 10.064 15.2026 9.35887 15.6513 8.84606C15.9077 8.58966 16.1 8.52556 16.4205 8.39735L16.4846 8.39735C16.2282 8.84606 16.0359 9.48707 16.0359 10.064C16.0359 11.346 16.741 12.628 17.8948 13.269C17.9589 13.269 18.023 13.3331 18.023 13.3331C18.1512 13.3331 18.2794 13.269 18.3435 13.0767C18.4076 12.8844 18.3435 12.6921 18.2153 12.4998C17.3179 12.0511 16.741 11.0896 16.741 10.064C16.741 9.48707 16.8692 9.03836 17.1256 8.65376C19.4973 11.1537 20.9717 14.4228 21.0999 17.8843C20.4588 17.4356 20.0101 16.7946 19.5614 16.1536C19.5614 16.1536 19.5614 16.0895 19.4973 16.0895L19.4332 15.8972L19.0486 15.8972L18.9845 15.9613L18.9204 16.0254C18.2794 17.1792 17.9589 18.4612 17.9589 19.7432C17.9589 22.6919 19.6896 25.2559 22.1896 26.5379L14.3052 26.5379C14.0487 26.5379 13.9205 26.6661 13.9205 26.9225C13.9205 27.1789 14.0487 27.3071 14.3052 27.3071L64.6885 27.3071C64.9449 27.3071 65.0732 27.1789 65.0732 26.9225C65.009 26.6661 64.8167 26.5379 64.6244 26.5379L56.8041 26.5379C59.3041 25.2559 61.0348 22.6919 61.0348 19.7432C61.0348 18.5253 60.7143 17.2433 60.1374 16.2177C60.1374 16.1536 60.0733 15.9613 60.0092 15.9613C59.881 15.8972 59.7528 15.8972 59.6246 15.9613L59.5605 15.9613L59.4964 16.0254C59.1118 16.7305 58.5348 17.3074 57.9579 17.8843C58.0861 14.4869 59.4323 11.1537 61.9322 8.71786C62.1886 9.10246 62.3168 9.67937 62.3168 10.1281C62.3168 11.1537 61.7399 12.1152 60.9066 12.628C60.7784 12.6921 60.6502 12.9485 60.7784 13.2049C60.8425 13.3331 61.0348 13.4613 61.0989 13.4613C61.163 13.4613 61.2271 13.4613 61.2271 13.3972C62.3809 12.7562 63.086 11.5383 63.086 10.1922C63.086 9.55117 62.9578 8.97426 62.6373 8.52556L62.7014 8.52556L63.4065 8.97426C63.8552 9.42297 64.1757 10.1922 64.1757 10.8973C64.1757 11.1537 64.3039 11.2819 64.5603 11.2819C64.8167 11.2819 64.9449 11.1537 64.9449 10.8973C64.9449 9.93578 64.5603 9.03836 63.9193 8.39735C63.5347 8.01275 63.0219 7.69224 62.5091 7.49994C62.5091 7.43584 62.445 7.43584 62.445 7.43584C60.8425 6.15382 58.663 5.51281 56.6118 5.89741C56.3554 5.89741 56.2272 6.15382 56.2913 6.34612C56.2913 6.60253 56.5477 6.73073 56.74 6.66663C58.1502 6.41022 59.6887 6.66663 60.9707 7.37174C60.522 7.24354 60.0092 7.11533 59.5605 7.11533C57.7015 7.11533 56.0349 8.14095 55.2657 9.80758C55.2016 9.93578 55.2657 10.1922 55.3939 10.3845L55.5221 10.3845C55.6503 10.3845 55.8426 10.3204 55.9067 10.1281C56.5477 8.78196 57.9579 7.88455 59.4964 7.88455C59.881 7.88455 60.2015 7.94865 60.5861 8.01275C56.5477 10.3845 53.9196 14.6152 53.9196 19.4227L53.1504 19.4227L53.1504 9.80758C54.0478 9.67937 54.7529 8.84606 54.7529 7.82044C54.7529 7.56404 54.6247 7.43584 54.3683 7.43584C54.1119 7.43584 53.9837 7.56404 53.9837 7.82044C53.9837 8.46145 53.535 8.91016 52.894 9.03836C51.4837 8.46145 49.9453 8.01275 48.4069 7.69224L48.4069 6.28202C48.4069 6.15382 48.2787 5.96151 48.0864 5.89741C45.2018 5.32051 42.3814 5 39.5609 5ZM39.4327 5.70511C42.125 5.70511 44.8172 5.96151 47.4454 6.53842L47.4454 7.30764C44.8172 6.73073 42.1891 6.41022 39.4327 6.41022C36.6764 6.41022 34.0483 6.73073 31.4201 7.30764L31.4201 6.53842C34.1124 5.96151 36.7405 5.70511 39.4327 5.70511ZM39.4327 7.37174C43.8557 7.37174 48.1505 8.14095 52.2529 9.67937L52.2529 19.3586L49.8812 19.3586L49.8812 14.551C49.8812 13.2049 48.8556 12.1793 47.5095 12.1793C46.1634 12.1793 45.1377 13.2049 45.1377 14.551L45.1377 19.3586L42.766 19.3586L42.766 12.9485C42.766 11.2178 41.3558 9.74347 39.5609 9.74347C37.8302 9.74347 36.3559 11.1537 36.3559 12.9485L36.3559 19.3586L33.9842 19.3586L33.9842 14.551C33.9842 13.2049 32.9585 12.1793 31.6124 12.1793C30.2663 12.1793 29.2407 13.2049 29.2407 14.551L29.2407 19.3586L26.6766 19.3586L26.6766 9.67937C30.715 8.14095 35.0739 7.37174 39.4327 7.37174ZM18.5999 9.10246C18.9204 9.23067 19.2409 9.48707 19.5614 9.74347L19.0486 9.74347C18.9204 9.48707 18.7281 9.23067 18.5999 9.10246ZM60.3938 9.10246C60.2656 9.23067 60.0733 9.48707 59.9451 9.74347L59.4964 9.74347C59.7528 9.48707 60.0733 9.23067 60.3938 9.10246ZM19.6255 10.5127L20.5229 10.5127C20.9717 10.9614 21.4845 11.5383 21.9332 12.1152L20.5229 12.1152C20.2665 11.6024 19.946 11.0255 19.6255 10.5127ZM39.4327 10.5127C40.7789 10.5127 41.8045 11.5383 41.8045 12.8844L41.8045 19.2945L36.9969 19.2945L36.9969 12.8844C37.061 11.6024 38.0866 10.5127 39.4327 10.5127ZM58.4707 10.5127L59.3682 10.5127C59.0477 10.9614 58.7271 11.5383 58.4707 12.1152L57.0605 12.1152C57.5092 11.6024 58.022 11.0255 58.4707 10.5127ZM20.8435 12.9485L22.5101 12.9485C22.8306 13.3972 23.087 13.9741 23.2793 14.551L21.3563 14.551C21.2281 13.9741 21.0358 13.5254 20.8435 12.9485ZM31.4842 12.9485C32.3816 12.9485 33.0867 13.6536 33.0867 14.551L33.0867 19.3586L29.8817 19.3586L29.8817 14.551C29.8817 13.6536 30.5868 12.9485 31.4842 12.9485ZM47.4454 12.9485C48.3428 12.9485 49.0479 13.6536 49.0479 14.551L49.0479 19.3586L45.8428 19.3586L45.8428 14.551C45.8428 13.6536 46.548 12.9485 47.4454 12.9485ZM56.4836 12.9485L58.1502 12.9485C57.8938 13.5254 57.7656 13.9741 57.5733 14.551L55.6503 14.551C55.9067 13.9741 56.1631 13.3972 56.4836 12.9485ZM21.5486 15.3203L23.5998 15.3203C23.728 15.769 23.9203 16.3459 23.9844 16.9228L21.7409 16.9228C21.805 16.41 21.6768 15.8972 21.5486 15.3203ZM55.3939 15.3203L57.4451 15.3203C57.381 15.8972 57.1887 16.3459 57.1887 16.9228L54.9452 16.9228C55.0734 16.41 55.2016 15.8331 55.3939 15.3203ZM19.2409 17.1151C19.8178 17.8202 20.4588 18.4612 21.164 18.974L21.2922 19.1022C22.2537 19.6791 23.3434 20.0637 24.4972 20.1278L27.3818 20.1278L27.3818 21.0253C26.4843 21.1535 25.7792 21.9868 25.7792 22.9483C25.7792 24.038 26.6766 24.9354 27.7664 24.9354C28.8561 24.9354 29.7535 24.038 29.7535 22.9483C29.7535 21.9868 29.0484 21.2176 28.151 21.0253L28.151 20.1278L34.5611 20.1278L34.5611 21.0253C33.6637 21.1535 32.9585 21.9868 32.9585 22.9483C32.9585 24.038 33.856 24.9354 34.9457 24.9354C36.0354 24.9354 36.9328 24.038 36.9328 22.9483C36.9328 21.9868 36.2277 21.2176 35.3303 21.0253L35.3303 20.1278L43.3429 20.1278L43.3429 21.0253C42.4455 21.1535 41.7404 21.9868 41.7404 22.9483C41.7404 24.038 42.6378 24.9354 43.7275 24.9354C44.8172 24.9354 45.7146 24.038 45.7146 22.9483C45.7146 21.9868 45.0095 21.2176 44.1121 21.0253L44.1121 20.1278L50.5222 20.1278L50.5222 21.0253C49.6248 21.1535 48.9197 21.9868 48.9197 22.9483C48.9197 24.038 49.8171 24.9354 50.9068 24.9354C51.9965 24.9354 52.894 24.038 52.894 22.9483C52.894 21.9868 52.1888 21.2176 51.2914 21.0253L51.2914 20.1278L54.2401 20.1278C56.4195 19.9996 58.3425 18.8458 59.6246 17.1792C59.9451 17.9484 60.2015 18.9099 60.2015 19.8073C60.2015 23.5893 57.1887 26.602 53.4068 26.602L25.4587 26.602L25.4587 26.5379C21.6768 26.5379 18.664 23.5252 18.664 19.7432C18.664 18.8458 18.7922 17.8843 19.2409 17.1151ZM21.8691 17.7561L24.1767 17.7561C24.2408 18.2048 24.2408 18.7817 24.2408 19.2945C23.3434 19.2304 22.5742 18.9099 21.8691 18.5253L21.8691 17.7561ZM54.817 17.7561L57.1887 17.7561L57.1887 18.4612C56.4836 18.8458 55.6503 19.1663 54.817 19.2304C54.7529 18.7817 54.7529 18.2048 54.817 17.7561ZM27.8305 21.7304C28.4715 21.7304 29.0484 22.3073 29.0484 22.9483C29.0484 23.5893 28.4715 24.1662 27.8305 24.1662C27.1895 24.1662 26.6125 23.5893 26.6125 22.9483C26.6125 22.3073 27.1895 21.7304 27.8305 21.7304ZM35.0739 21.7304C35.7149 21.7304 36.2918 22.3073 36.2918 22.9483C36.2918 23.5893 35.7149 24.1662 35.0739 24.1662C34.4329 24.1662 33.856 23.5893 33.856 22.9483C33.856 22.3073 34.4329 21.7304 35.0739 21.7304ZM43.8557 21.7304C44.4967 21.7304 45.0736 22.3073 45.0736 22.9483C45.0736 23.5893 44.4967 24.1662 43.8557 24.1662C43.2147 24.1662 42.6378 23.5893 42.6378 22.9483C42.6378 22.3073 43.2147 21.7304 43.8557 21.7304ZM51.035 21.7304C51.676 21.7304 52.2529 22.3073 52.2529 22.9483C52.2529 23.5893 51.676 24.1662 51.035 24.1662C50.394 24.1662 49.8812 23.5893 49.8812 22.9483C49.8812 22.3073 50.394 21.7304 51.035 21.7304ZM14.2411 30.5122C13.9846 30.5122 13.8564 30.6404 13.8564 30.8968C13.8564 31.1532 14.1128 31.2814 14.2411 31.2814L16.6128 31.2814C16.8692 31.2814 16.9974 31.1532 16.9974 30.8968C16.9974 30.6404 16.8692 30.5122 16.6128 30.5122L14.2411 30.5122ZM19.0486 30.5122C18.7922 30.5122 18.664 30.6404 18.664 30.8968C18.664 31.1532 18.7922 31.2814 19.0486 31.2814L37.4456 31.2814C37.702 31.2814 37.8302 31.1532 37.8302 30.8968C37.8302 30.6404 37.702 30.5122 37.4456 30.5122L19.0486 30.5122ZM39.8815 30.5122C39.625 30.5122 39.4968 30.6404 39.4968 30.8968C39.4968 31.1532 39.625 31.2814 39.8815 31.2814L43.8557 31.2814C44.1121 31.2814 44.2403 31.1532 44.2403 30.8968C44.2403 30.6404 44.1121 30.5122 43.8557 30.5122L39.8815 30.5122ZM46.2275 30.5122C45.971 30.5122 45.8428 30.6404 45.8428 30.8968C45.8428 31.1532 45.971 31.2814 46.2275 31.2814L64.6244 31.2814C64.8808 31.2814 65.009 31.1532 65.009 30.8968C65.009 30.6404 64.8808 30.5122 64.6244 30.5122L46.2275 30.5122ZM14.2411 34.5506C13.9846 34.5506 13.8564 34.6788 13.8564 34.9352C13.8564 35.1916 14.1128 35.3198 14.2411 35.3198L22.2537 35.3198C22.5101 35.3198 22.6383 35.1916 22.6383 34.9352C22.6383 34.6788 22.5101 34.5506 22.2537 34.5506L14.2411 34.5506ZM24.6254 34.5506C24.4972 34.5506 24.2408 34.6788 24.2408 34.9352C24.2408 35.1916 24.369 35.3198 24.6254 35.3198L56.6118 35.3198C56.8682 35.3198 56.9964 35.1916 56.9964 34.9352C56.9964 34.6788 56.8682 34.5506 56.6118 34.5506L24.6254 34.5506ZM59.0477 34.5506C58.7912 34.5506 58.663 34.6788 58.663 34.9352C58.663 35.1916 58.7912 35.3198 59.0477 35.3198L64.6244 35.3198C64.8808 35.3198 65.009 35.1916 65.009 34.9352C65.009 34.6788 64.8808 34.5506 64.6244 34.5506L59.0477 34.5506ZM14.2411 38.5248C13.9846 38.5248 13.8564 38.653 13.8564 38.9094C13.8564 39.1658 14.1128 39.294 14.2411 39.294L18.2153 39.294C18.4717 39.294 18.5999 39.1658 18.5999 38.9094C18.5999 38.653 18.4717 38.5248 18.2153 38.5248L14.2411 38.5248ZM20.6512 38.5248C20.3947 38.5248 20.2665 38.653 20.2665 38.9094C20.2665 39.1658 20.3947 39.294 20.6512 39.294L40.6507 39.294C40.9071 39.294 41.0353 39.1658 41.0353 38.9094C41.0353 38.653 40.9071 38.5248 40.6507 38.5248L20.6512 38.5248ZM43.0865 38.5248C42.8301 38.5248 42.7019 38.653 42.7019 38.9094C42.7019 39.1658 42.8301 39.294 43.0865 39.294L50.2658 39.294C50.5222 39.294 50.6504 39.1658 50.6504 38.9094C50.6504 38.653 50.5222 38.5248 50.2658 38.5248L43.0865 38.5248ZM52.6376 38.5248C52.3811 38.5248 52.2529 38.653 52.2529 38.9094C52.2529 39.1658 52.3811 39.294 52.6376 39.294L64.5603 39.294C64.8167 39.294 64.9449 39.1658 64.9449 38.9094C64.9449 38.653 64.8808 38.5248 64.6244 38.5248L52.6376 38.5248ZM14.2411 42.5632C13.9846 42.5632 13.8564 42.6914 13.8564 42.9478C13.8564 43.2042 14.1128 43.3324 14.2411 43.3324L27.8305 43.3324C28.0869 43.3324 28.2151 43.2042 28.2151 42.9478C28.2151 42.6914 28.0869 42.5632 27.8305 42.5632L14.2411 42.5632ZM30.2663 42.5632C30.0099 42.5632 29.8817 42.6914 29.8817 42.9478C29.8817 43.2042 30.1381 43.3324 30.2663 43.3324L34.2406 43.3324C34.497 43.3324 34.6252 43.2042 34.6252 42.9478C34.6252 42.6914 34.497 42.5632 34.2406 42.5632L30.2663 42.5632ZM36.6764 42.5632C36.42 42.5632 36.2918 42.6914 36.2918 42.9478C36.2918 43.2042 36.42 43.3324 36.6764 43.3324L55.0734 43.3324C55.3298 43.3324 55.458 43.2042 55.458 42.9478C55.458 42.6914 55.3298 42.5632 55.0734 42.5632L36.6764 42.5632ZM57.4451 42.5632C57.1887 42.5632 57.0605 42.6914 57.0605 42.9478C57.0605 43.2042 57.1887 43.3324 57.4451 43.3324L63.0219 43.3324C63.2783 43.3324 63.4065 43.2042 63.4065 42.9478C63.4065 42.6914 63.2783 42.5632 63.0219 42.5632L57.4451 42.5632ZM14.2411 46.5375C13.9846 46.5375 13.8564 46.6656 13.8564 46.9221C13.8564 47.1785 13.9846 47.3067 14.2411 47.3067L18.2153 47.3067C18.4717 47.3067 18.5999 47.1785 18.5999 46.9221C18.5999 46.6656 18.4717 46.5375 18.2153 46.5375L14.2411 46.5375ZM20.6512 46.5375C20.3947 46.5375 20.2665 46.6656 20.2665 46.9221C20.2665 47.1785 20.3947 47.3067 20.6512 47.3067L24.6254 47.3067C24.8818 47.3067 25.01 47.1785 25.01 46.9221C25.01 46.6656 24.8818 46.5375 24.6254 46.5375L20.6512 46.5375ZM27.0613 46.5375C26.8048 46.5375 26.6766 46.6656 26.6766 46.9221C26.6766 47.1785 26.8048 47.3067 27.0613 47.3067L45.4582 47.3067C45.7146 47.3067 45.8428 47.1785 45.8428 46.9221C45.8428 46.6656 45.7146 46.5375 45.4582 46.5375L27.0613 46.5375ZM47.83 46.5375C47.5736 46.5375 47.4454 46.6656 47.4454 46.9221C47.4454 47.1785 47.5736 47.3067 47.83 47.3067L64.6244 47.3067C64.8808 47.3067 65.009 47.1785 65.009 46.9221C65.009 46.6656 64.8808 46.5375 64.6244 46.5375L47.83 46.5375ZM15.8436 50.5117C15.5872 50.5117 15.459 50.6399 15.459 50.8963C15.459 51.1527 15.5872 51.2809 15.8436 51.2809L21.4204 51.2809C21.6768 51.2809 21.805 51.1527 21.805 50.8963C21.805 50.6399 21.6768 50.5117 21.4204 50.5117L15.8436 50.5117ZM23.8562 50.5117C23.5998 50.5117 23.4716 50.6399 23.4716 50.8963C23.4716 51.1527 23.5998 51.2809 23.8562 51.2809L42.2532 51.2809C42.5096 51.2809 42.6378 51.1527 42.6378 50.8963C42.6378 50.6399 42.5096 50.5117 42.2532 50.5117L23.8562 50.5117ZM44.6249 50.5117C44.3685 50.5117 44.2403 50.6399 44.2403 50.8963C44.2403 51.1527 44.3685 51.2809 44.6249 51.2809L48.5992 51.2809C48.8556 51.2809 48.9838 51.1527 48.9838 50.8963C48.9838 50.6399 48.8556 50.5117 48.5992 50.5117L44.6249 50.5117ZM51.035 50.5117C50.7786 50.5117 50.6504 50.6399 50.6504 50.8963C50.6504 51.1527 50.7786 51.2809 51.035 51.2809L64.6244 51.2809C64.8808 51.2809 65.009 51.1527 65.009 50.8963C65.009 50.6399 64.8808 50.5117 64.6244 50.5117L51.035 50.5117Z" fill="rgb(26,26,26)" fill-rule="nonzero" />
			</g>
		</g>
	</g>
</svg>
