<svg viewBox="0 0 83 83" xmlns="http://www.w3.org/2000/svg" xmlns:xlink="http://www.w3.org/1999/xlink" width="83.000000" height="83.000000" fill="none" customFrame="#000000">
	<defs>
		<clipPath id="clipPath_3">
			<rect width="80.000000" height="56.140350" x="2.000000" y="0.000000" fill="rgb(255,255,255)" />
		</clipPath>
	</defs>
	<g id="Group 423">
		<path id="hyderabad" d="M8.95574 69.67L8.95574 79.4L7.35974 79.4L7.35974 75.144L2.78174 75.144L2.78174 79.4L1.18574 79.4L1.18574 69.67L2.78174 69.67L2.78174 73.842L7.35974 73.842L7.35974 69.67L8.95574 69.67ZM18.2668 69.67L15.0468 75.872L15.0468 79.4L13.4508 79.4L13.4508 75.872L10.2168 69.67L11.9948 69.67L14.2488 74.444L16.5028 69.67L18.2668 69.67ZM22.7114 69.67C23.7474 69.67 24.6527 69.8707 25.4274 70.272C26.2114 70.664 26.8134 71.2333 27.2334 71.98C27.6627 72.7173 27.8774 73.5807 27.8774 74.57C27.8774 75.5593 27.6627 76.418 27.2334 77.146C26.8134 77.874 26.2114 78.434 25.4274 78.826C24.6527 79.2087 23.7474 79.4 22.7114 79.4L19.5334 79.4L19.5334 69.67L22.7114 69.67ZM22.7114 78.098C23.8501 78.098 24.7227 77.79 25.3294 77.174C25.9361 76.558 26.2394 75.69 26.2394 74.57C26.2394 73.4407 25.9361 72.5587 25.3294 71.924C24.7227 71.2893 23.8501 70.972 22.7114 70.972L21.1294 70.972L21.1294 78.098L22.7114 78.098ZM31.0552 70.958L31.0552 73.814L34.4152 73.814L34.4152 75.116L31.0552 75.116L31.0552 78.098L34.8352 78.098L34.8352 79.4L29.4592 79.4L29.4592 69.656L34.8352 69.656L34.8352 70.958L31.0552 70.958ZM41.855 79.4L39.615 75.508L38.397 75.508L38.397 79.4L36.801 79.4L36.801 69.67L40.161 69.67C40.9076 69.67 41.5376 69.8007 42.051 70.062C42.5736 70.3233 42.961 70.6733 43.213 71.112C43.4743 71.5507 43.605 72.0407 43.605 72.582C43.605 73.2167 43.4183 73.7953 43.045 74.318C42.681 74.8313 42.1163 75.1813 41.351 75.368L43.759 79.4L41.855 79.4ZM38.397 74.234L40.161 74.234C40.7583 74.234 41.2063 74.0847 41.505 73.786C41.813 73.4873 41.967 73.086 41.967 72.582C41.967 72.078 41.8176 71.686 41.519 71.406C41.2203 71.1167 40.7676 70.972 40.161 70.972L38.397 70.972L38.397 74.234ZM51.5127 77.412L47.4387 77.412L46.7387 79.4L45.0727 79.4L48.5587 69.656L50.4067 69.656L53.8927 79.4L52.2127 79.4L51.5127 77.412ZM51.0647 76.11L49.4827 71.588L47.8867 76.11L51.0647 76.11ZM60.6164 74.402C61.1391 74.4953 61.5824 74.7707 61.9464 75.228C62.3104 75.6853 62.4924 76.2033 62.4924 76.782C62.4924 77.2767 62.3617 77.7247 62.1004 78.126C61.8484 78.518 61.4797 78.8307 60.9944 79.064C60.5091 79.288 59.9444 79.4 59.3004 79.4L55.4084 79.4L55.4084 69.67L59.1184 69.67C59.7811 69.67 60.3504 69.782 60.8264 70.006C61.3024 70.23 61.6617 70.5333 61.9044 70.916C62.1471 71.2893 62.2684 71.7093 62.2684 72.176C62.2684 72.736 62.1191 73.2027 61.8204 73.576C61.5217 73.9493 61.1204 74.2247 60.6164 74.402ZM57.0044 73.758L58.9784 73.758C59.5011 73.758 59.9071 73.6413 60.1964 73.408C60.4951 73.1653 60.6444 72.82 60.6444 72.372C60.6444 71.9333 60.4951 71.5927 60.1964 71.35C59.9071 71.098 59.5011 70.972 58.9784 70.972L57.0044 70.972L57.0044 73.758ZM59.1604 78.098C59.7017 78.098 60.1264 77.9673 60.4344 77.706C60.7424 77.4447 60.8964 77.0807 60.8964 76.614C60.8964 76.138 60.7331 75.76 60.4064 75.48C60.0797 75.2 59.6457 75.06 59.1044 75.06L57.0044 75.06L57.0044 78.098L59.1604 78.098ZM70.0928 77.412L66.0188 77.412L65.3188 79.4L63.6528 79.4L67.1388 69.656L68.9868 69.656L72.4728 79.4L70.7928 79.4L70.0928 77.412ZM69.6448 76.11L68.0628 71.588L66.4668 76.11L69.6448 76.11ZM77.1665 69.67C78.2025 69.67 79.1078 69.8707 79.8825 70.272C80.6665 70.664 81.2685 71.2333 81.6885 71.98C82.1178 72.7173 82.3325 73.5807 82.3325 74.57C82.3325 75.5593 82.1178 76.418 81.6885 77.146C81.2685 77.874 80.6665 78.434 79.8825 78.826C79.1078 79.2087 78.2025 79.4 77.1665 79.4L73.9885 79.4L73.9885 69.67L77.1665 69.67ZM77.1665 78.098C78.3051 78.098 79.1778 77.79 79.7845 77.174C80.3911 76.558 80.6945 75.69 80.6945 74.57C80.6945 73.4407 80.3911 72.5587 79.7845 71.924C79.1778 71.2893 78.3051 70.972 77.1665 70.972L75.5845 70.972L75.5845 78.098L77.1665 78.098Z" fill="rgb(26,26,26)" fill-rule="nonzero" />
		<path id="hyderabad" d="M8.95574 69.67L8.95574 79.4L7.35974 79.4L7.35974 75.144L2.78174 75.144L2.78174 79.4L1.18574 79.4L1.18574 69.67L2.78174 69.67L2.78174 73.842L7.35974 73.842L7.35974 69.67L8.95574 69.67ZM18.2668 69.67L15.0468 75.872L15.0468 79.4L13.4508 79.4L13.4508 75.872L10.2168 69.67L11.9948 69.67L14.2488 74.444L16.5028 69.67L18.2668 69.67ZM22.7114 69.67C23.7474 69.67 24.6527 69.8707 25.4274 70.272C26.2114 70.664 26.8134 71.2333 27.2334 71.98C27.6627 72.7173 27.8774 73.5807 27.8774 74.57C27.8774 75.5593 27.6627 76.418 27.2334 77.146C26.8134 77.874 26.2114 78.434 25.4274 78.826C24.6527 79.2087 23.7474 79.4 22.7114 79.4L19.5334 79.4L19.5334 69.67L22.7114 69.67ZM22.7114 78.098C23.8501 78.098 24.7227 77.79 25.3294 77.174C25.9361 76.558 26.2394 75.69 26.2394 74.57C26.2394 73.4407 25.9361 72.5587 25.3294 71.924C24.7227 71.2893 23.8501 70.972 22.7114 70.972L21.1294 70.972L21.1294 78.098L22.7114 78.098ZM31.0552 70.958L31.0552 73.814L34.4152 73.814L34.4152 75.116L31.0552 75.116L31.0552 78.098L34.8352 78.098L34.8352 79.4L29.4592 79.4L29.4592 69.656L34.8352 69.656L34.8352 70.958L31.0552 70.958ZM41.855 79.4L39.615 75.508L38.397 75.508L38.397 79.4L36.801 79.4L36.801 69.67L40.161 69.67C40.9076 69.67 41.5376 69.8007 42.051 70.062C42.5736 70.3233 42.961 70.6733 43.213 71.112C43.4743 71.5507 43.605 72.0407 43.605 72.582C43.605 73.2167 43.4183 73.7953 43.045 74.318C42.681 74.8313 42.1163 75.1813 41.351 75.368L43.759 79.4L41.855 79.4ZM38.397 74.234L40.161 74.234C40.7583 74.234 41.2063 74.0847 41.505 73.786C41.813 73.4873 41.967 73.086 41.967 72.582C41.967 72.078 41.8176 71.686 41.519 71.406C41.2203 71.1167 40.7676 70.972 40.161 70.972L38.397 70.972L38.397 74.234ZM51.5127 77.412L47.4387 77.412L46.7387 79.4L45.0727 79.4L48.5587 69.656L50.4067 69.656L53.8927 79.4L52.2127 79.4L51.5127 77.412ZM51.0647 76.11L49.4827 71.588L47.8867 76.11L51.0647 76.11ZM60.6164 74.402C61.1391 74.4953 61.5824 74.7707 61.9464 75.228C62.3104 75.6853 62.4924 76.2033 62.4924 76.782C62.4924 77.2767 62.3617 77.7247 62.1004 78.126C61.8484 78.518 61.4797 78.8307 60.9944 79.064C60.5091 79.288 59.9444 79.4 59.3004 79.4L55.4084 79.4L55.4084 69.67L59.1184 69.67C59.7811 69.67 60.3504 69.782 60.8264 70.006C61.3024 70.23 61.6617 70.5333 61.9044 70.916C62.1471 71.2893 62.2684 71.7093 62.2684 72.176C62.2684 72.736 62.1191 73.2027 61.8204 73.576C61.5217 73.9493 61.1204 74.2247 60.6164 74.402ZM57.0044 73.758L58.9784 73.758C59.5011 73.758 59.9071 73.6413 60.1964 73.408C60.4951 73.1653 60.6444 72.82 60.6444 72.372C60.6444 71.9333 60.4951 71.5927 60.1964 71.35C59.9071 71.098 59.5011 70.972 58.9784 70.972L57.0044 70.972L57.0044 73.758ZM59.1604 78.098C59.7017 78.098 60.1264 77.9673 60.4344 77.706C60.7424 77.4447 60.8964 77.0807 60.8964 76.614C60.8964 76.138 60.7331 75.76 60.4064 75.48C60.0797 75.2 59.6457 75.06 59.1044 75.06L57.0044 75.06L57.0044 78.098L59.1604 78.098ZM70.0928 77.412L66.0188 77.412L65.3188 79.4L63.6528 79.4L67.1388 69.656L68.9868 69.656L72.4728 79.4L70.7928 79.4L70.0928 77.412ZM69.6448 76.11L68.0628 71.588L66.4668 76.11L69.6448 76.11ZM77.1665 69.67C78.2025 69.67 79.1078 69.8707 79.8825 70.272C80.6665 70.664 81.2685 71.2333 81.6885 71.98C82.1178 72.7173 82.3325 73.5807 82.3325 74.57C82.3325 75.5593 82.1178 76.418 81.6885 77.146C81.2685 77.874 80.6665 78.434 79.8825 78.826C79.1078 79.2087 78.2025 79.4 77.1665 79.4L73.9885 79.4L73.9885 69.67L77.1665 69.67ZM77.1665 78.098C78.3051 78.098 79.1778 77.79 79.7845 77.174C80.3911 76.558 80.6945 75.69 80.6945 74.57C80.6945 73.4407 80.3911 72.5587 79.7845 71.924C79.1778 71.2893 78.3051 70.972 77.1665 70.972L75.5845 70.972L75.5845 78.098L77.1665 78.098Z" fill="rgb(0,0,0)" fill-opacity="0.200000003" fill-rule="nonzero" />
		<g id="Frame" opacity="0.5" clip-path="url(#clipPath_3)" customFrame="url(#clipPath_3)">
			<rect id="Frame" width="80.000000" height="56.140350" x="2.000000" y="0.000000" fill="rgb(255,255,255)" fill-opacity="0" />
			<g id="Group">
				<path id="Vector" d="M49.496 25.3739C49.2058 25.3739 48.9736 25.1417 48.9736 24.8515C48.9736 24.5613 49.2058 24.3291 49.496 24.3291C49.7862 24.3291 50.0184 24.5613 50.0184 24.8515C50.0184 25.1417 49.7862 25.3739 49.496 25.3739Z" fill="rgb(26,26,26)" fill-rule="nonzero" />
				<path id="Vector" d="M51.6437 47.4299C51.4115 47.4299 51.2373 47.2557 51.2373 47.0236L51.2373 45.3983C51.2373 45.1662 51.4115 44.992 51.6437 44.992C51.8758 44.992 52.05 45.1662 52.05 45.3983L52.05 47.0236C52.05 47.2557 51.8758 47.4299 51.6437 47.4299ZM31.6186 47.3138C31.3864 47.3138 31.2123 47.1396 31.2123 46.9075L31.2123 45.3403C31.2123 45.1081 31.3864 44.934 31.6186 44.934C31.8508 44.934 32.0249 45.1081 32.0249 45.3403L32.0249 46.9075C31.9668 47.1396 31.8508 47.3138 31.6186 47.3138ZM51.6437 41.2192C51.4115 41.2192 51.2373 41.0451 51.2373 40.8129L51.2373 39.2457C51.2373 39.0135 51.4115 38.8394 51.6437 38.8394C51.8758 38.8394 52.05 39.0135 52.05 39.2457L52.05 40.8129C52.05 41.0451 51.8758 41.2192 51.6437 41.2192ZM31.6186 41.1611C31.3864 41.1611 31.2123 40.987 31.2123 40.7548L31.2123 39.1296C31.2123 38.8974 31.3864 38.7233 31.6186 38.7233C31.8508 38.7233 32.0249 38.8974 32.0249 39.1296L32.0249 40.7548C31.9668 40.987 31.8508 41.1611 31.6186 41.1611ZM51.6437 35.1246C51.4115 35.1246 51.2373 34.9505 51.2373 34.7183L51.2373 33.0931C51.2373 32.8609 51.4115 32.6868 51.6437 32.6868C51.8758 32.6868 52.05 32.8609 52.05 33.0931L52.05 34.7183C52.05 34.9505 51.8758 35.1246 51.6437 35.1246ZM31.6186 35.0085C31.3864 35.0085 31.2123 34.8344 31.2123 34.6022L31.2123 33.035C31.2123 32.8029 31.3864 32.6287 31.6186 32.6287C31.8508 32.6287 32.0249 32.8029 32.0249 33.035L32.0249 34.6022C31.9668 34.8344 31.8508 35.0085 31.6186 35.0085ZM27.8457 26.302C27.6136 26.302 27.4394 26.1278 27.4394 25.8957L27.4394 23.69C27.4394 23.4578 27.6136 23.2837 27.8457 23.2837C28.0779 23.2837 28.252 23.4578 28.252 23.69L28.252 25.8957C28.252 26.1278 28.0779 26.302 27.8457 26.302ZM24.9436 26.302C24.7114 26.302 24.5373 26.1278 24.5373 25.8957L24.5373 23.69C24.5373 23.4578 24.7114 23.2837 24.9436 23.2837C25.1757 23.2837 25.3499 23.4578 25.3499 23.69L25.3499 25.8957C25.3499 26.1278 25.1757 26.302 24.9436 26.302ZM21.8672 26.302C21.6351 26.302 21.4609 26.1278 21.4609 25.8957L21.4609 23.69C21.4609 23.4578 21.6351 23.2837 21.8672 23.2837C22.0994 23.2837 22.2736 23.4578 22.2736 23.69L22.2736 25.8957C22.2736 26.1278 22.0994 26.302 21.8672 26.302Z" fill="rgb(26,26,26)" fill-rule="nonzero" />
				<path id="Vector" d="M18.8487 51.2028C18.6165 51.2028 18.4424 51.0286 18.4424 50.7965C18.4424 50.5643 18.6165 50.3902 18.8487 50.3902L20.9963 50.3902L20.9963 29.2042L18.8487 29.2042C18.6165 29.2042 18.4424 29.0301 18.4424 28.7979L18.4424 20.8459C18.4424 20.6138 18.6165 20.4396 18.8487 20.4396L20.2417 20.4396L20.2417 16.7248C20.2417 16.4926 20.4159 16.3185 20.648 16.3185L21.8089 16.3185L22.0411 13.7066L22.0411 13.6485C21.7509 13.4744 20.648 11.9072 22.2152 10.2239C23.1439 9.29523 23.8985 8.30849 24.4789 7.32175L24.4789 5.40631C24.4789 5.17413 24.6531 5 24.8852 5C25.1174 5 25.2915 5.17413 25.2915 5.40631L25.2915 7.32175C25.872 8.30849 26.6265 9.29523 27.5552 10.282C29.1224 11.9652 28.0776 13.4744 27.8455 13.8226L27.8455 13.8807L28.0776 16.4926L29.2385 16.4926C29.4707 16.4926 29.6448 16.6668 29.6448 16.899L29.6448 20.6138L53.7329 20.6138L53.7329 16.899C53.7329 16.6668 53.9071 16.4926 54.1392 16.4926L55.3001 16.4926L55.5323 13.8807L55.5323 13.8226C55.3001 13.5324 54.1973 11.9652 55.8225 10.282C56.7512 9.29523 57.4477 8.36653 58.0862 7.32175L58.0862 5.40631C58.0862 5.17413 58.2603 5 58.4925 5C58.7247 5 58.8988 5.17413 58.8988 5.40631L58.8988 7.32175C59.4793 8.30849 60.2338 9.29523 61.1625 10.282C62.7297 11.9652 61.6849 13.4744 61.4528 13.8226L61.4528 13.8807L61.6849 16.4926L62.8458 16.4926C63.078 16.4926 63.2521 16.6668 63.2521 16.899L63.2521 20.6138L64.6452 20.6138C64.8773 20.6138 65.0515 20.7879 65.0515 21.0201L65.0515 29.0301C65.0515 29.2623 64.8773 29.4364 64.6452 29.4364L62.4395 29.4364L62.4395 50.6804L64.6452 50.6804C64.8773 50.6804 65.0515 50.8545 65.0515 51.0867C65.0515 51.3189 64.8773 51.493 64.6452 51.493L18.8487 51.493L18.8487 51.2028ZM55.126 50.4482L61.3367 50.4482L61.3367 29.2042L55.126 29.2042L55.126 50.4482ZM48.7412 50.4482L54.3134 50.4482L54.3134 29.2042L48.7412 29.2042L48.7412 50.4482ZM41.5438 40.1164C43.6333 40.1164 45.3166 41.7997 45.3166 43.8893L45.3166 50.4482L47.9866 50.4482L47.9866 29.2042L35.1009 29.2042L35.1009 50.4482L37.7709 50.4482L37.7709 43.8893C37.7709 41.7997 39.4542 40.1164 41.5438 40.1164ZM41.5438 40.871C39.8605 40.871 38.5255 42.206 38.5255 43.8893L38.5255 50.4482L44.562 50.4482L44.562 43.8893C44.562 42.206 43.227 40.871 41.5438 40.871ZM28.7742 50.4482L34.2883 50.4482L34.2883 29.2042L28.7742 29.2042L28.7742 50.4482ZM21.7509 50.4482L28.0196 50.4482L28.0196 29.2042L21.7509 29.2042L21.7509 50.4482ZM52.514 28.4496L63.8325 28.4496L63.8325 21.2522L52.514 21.2522L52.514 28.4496ZM31.3281 28.4496L51.8175 28.4496L51.8175 21.2522L31.3281 21.2522L31.3281 24.4446L46.4194 24.4446C46.6516 24.4446 46.8257 24.6188 46.8257 24.8509C46.8257 25.0831 46.6516 25.2572 46.4194 25.2572L31.3281 25.2572L31.3281 28.4496ZM19.197 28.4496L30.5155 28.4496L30.5155 21.2522L19.197 21.2522L19.197 28.4496ZM54.3134 20.4977L62.0332 20.4977L62.0332 17.1892L54.3134 17.1892L54.3134 20.4977ZM20.9963 20.4977L28.7161 20.4977L28.7161 17.1892L20.9963 17.1892L20.9963 20.4977ZM58.2023 15.2157C58.4345 15.2157 58.6086 15.3898 58.6086 15.622L58.6086 16.3766L60.5821 16.3766L60.408 13.9968L56.1708 13.9968L55.9966 16.3766L57.9701 16.3766L57.9701 15.622C57.854 15.3898 58.0282 15.2157 58.2023 15.2157ZM24.8852 15.2737C25.1174 15.2737 25.2915 15.4479 25.2915 15.68L25.2915 16.4346L27.265 16.4346L27.0909 14.0548L22.8537 14.0548L22.6796 16.4346L24.6531 16.4346L24.6531 15.68C24.4789 15.4479 24.6531 15.2737 24.8852 15.2737ZM58.0862 8.25045C57.5638 9.1211 56.8673 9.93371 56.1127 10.7463C55.0679 11.8492 55.5903 12.8359 55.8806 13.2422L55.9386 13.3002L60.5821 13.3002L60.6401 13.2422C60.9304 12.8939 61.4528 11.8492 60.408 10.7463C59.5954 9.93371 58.9569 9.1211 58.4345 8.25045L58.3184 8.07631L58.0862 8.25045ZM24.7691 8.25045C24.2467 9.1211 23.5502 9.93371 22.7957 10.7463C21.7509 11.8492 22.2733 12.8359 22.5635 13.2422L22.6215 13.3002L27.207 13.3002L27.265 13.2422C27.5552 12.8939 28.0776 11.8492 27.0328 10.7463C26.2202 9.93371 25.5818 9.1211 25.0594 8.25045L24.9433 8.07631L24.7691 8.25045Z" fill="rgb(26,26,26)" fill-rule="nonzero" />
				<path id="Vector" d="M61.1621 26.3021C60.9299 26.3021 60.7558 26.128 60.7558 25.8958L60.7558 23.6902C60.7558 23.458 60.9299 23.2838 61.1621 23.2838C61.3943 23.2838 61.5684 23.458 61.5684 23.6902L61.5684 25.8958C61.5684 26.128 61.3943 26.3021 61.1621 26.3021ZM58.2599 26.3021C58.0278 26.3021 57.8536 26.128 57.8536 25.8958L57.8536 23.6902C57.8536 23.458 58.0278 23.2838 58.2599 23.2838C58.4921 23.2838 58.6662 23.458 58.6662 23.6902L58.6662 25.8958C58.6662 26.128 58.4921 26.3021 58.2599 26.3021ZM55.2417 26.3021C55.0095 26.3021 54.8354 26.128 54.8354 25.8958L54.8354 23.6902C54.8354 23.458 55.0095 23.2838 55.2417 23.2838C55.4738 23.2838 55.648 23.458 55.648 23.6902L55.648 25.8958C55.5899 26.128 55.4158 26.3021 55.2417 26.3021ZM47.5219 16.6088C47.2897 16.6088 47.1155 16.4347 47.1155 16.2025L47.1155 15.564C47.1155 15.3319 47.2897 15.1577 47.5219 15.1577C47.754 15.1577 47.9282 15.3319 47.9282 15.564L47.9282 16.2025C47.8701 16.4347 47.696 16.6088 47.5219 16.6088ZM48.7988 14.6353C48.5666 14.6353 48.3925 14.4612 48.3925 14.229C48.3925 13.9969 48.5666 13.8227 48.7988 13.8227L49.4373 13.8227C49.6695 13.8227 49.8436 13.9969 49.8436 14.229C49.8436 14.4612 49.6695 14.6353 49.4373 14.6353L48.7988 14.6353ZM45.4903 14.6353C45.2581 14.6353 45.084 14.4612 45.084 14.229C45.084 13.9969 45.2581 13.8227 45.4903 13.8227L46.1288 13.8227C46.361 13.8227 46.5351 13.9969 46.5351 14.229C46.5351 14.4612 46.361 14.6353 46.1288 14.6353L45.4903 14.6353ZM47.5219 13.3003C47.2897 13.3003 47.1155 13.1262 47.1155 12.894L47.1155 12.2555C47.1155 12.0234 47.2897 11.8492 47.5219 11.8492C47.754 11.8492 47.9282 12.0234 47.9282 12.2555L47.9282 12.894C47.8701 13.1262 47.696 13.3003 47.5219 13.3003ZM35.5648 11.6171C35.3327 11.6171 35.1585 11.4429 35.1585 11.2108L35.1585 10.6303C35.1585 10.3981 35.3327 10.224 35.5648 10.224C35.797 10.224 35.9712 10.3981 35.9712 10.6303L35.9712 11.2688C35.9712 11.4429 35.797 11.6171 35.5648 11.6171ZM36.8999 9.64358C36.6677 9.64358 36.4935 9.46945 36.4935 9.23727C36.4935 9.0051 36.6677 8.83097 36.8999 8.83097L37.5964 8.83097C37.8286 8.83097 38.0027 9.0051 38.0027 9.23727C37.9446 9.46945 37.7705 9.64358 37.5964 9.64358L36.8999 9.64358ZM33.5914 9.64358C33.3592 9.64358 33.1851 9.46945 33.1851 9.23727C33.1851 9.0051 33.3592 8.83097 33.5914 8.83097L34.2298 8.83097C34.462 8.83097 34.6362 9.0051 34.6362 9.23727C34.6362 9.46945 34.462 9.64358 34.2298 9.64358L33.5914 9.64358ZM35.5648 8.30858C35.3327 8.30858 35.1585 8.13445 35.1585 7.90227L35.1585 7.32183C35.1585 7.08966 35.3327 6.91553 35.5648 6.91553C35.797 6.91553 35.9712 7.08966 35.9712 7.32183L35.9712 7.96031C35.9712 8.13444 35.797 8.30858 35.5648 8.30858Z" fill="rgb(26,26,26)" fill-rule="nonzero" />
			</g>
		</g>
	</g>
</svg>
