<svg viewBox="0 0 80 83" xmlns="http://www.w3.org/2000/svg" xmlns:xlink="http://www.w3.org/1999/xlink" width="80.000000" height="83.000000" fill="none" customFrame="#000000">
	<defs>
		<clipPath id="clipPath_6">
			<rect width="80.000000" height="56.140350" x="0.000000" y="0.000000" fill="rgb(255,255,255)" />
		</clipPath>
	</defs>
	<g id="Group 427">
		<path id="Mumbai" d="M23.4835 69.67L23.4835 79.4L21.8875 79.4L21.8875 72.736L18.9195 79.4L17.8135 79.4L14.8315 72.736L14.8315 79.4L13.2355 79.4L13.2355 69.67L14.9575 69.67L18.3735 77.3L21.7755 69.67L23.4835 69.67ZM27.1632 69.67L27.1632 75.872C27.1632 76.6093 27.3546 77.1647 27.7373 77.538C28.1292 77.9113 28.6706 78.098 29.3612 78.098C30.0613 78.098 30.6026 77.9113 30.9853 77.538C31.3773 77.1647 31.5732 76.6093 31.5732 75.872L31.5732 69.67L33.1693 69.67L33.1693 75.844C33.1693 76.6373 32.9966 77.3093 32.6513 77.86C32.3059 78.4107 31.8439 78.8213 31.2653 79.092C30.6866 79.3627 30.0473 79.498 29.3472 79.498C28.6473 79.498 28.0079 79.3627 27.4293 79.092C26.8599 78.8213 26.4072 78.4107 26.0713 77.86C25.7353 77.3093 25.5672 76.6373 25.5672 75.844L25.5672 69.67L27.1632 69.67ZM45.4953 69.67L45.4953 79.4L43.8993 79.4L43.8993 72.736L40.9313 79.4L39.8253 79.4L36.8433 72.736L36.8433 79.4L35.2473 79.4L35.2473 69.67L36.9693 69.67L40.3853 77.3L43.7873 69.67L45.4953 69.67ZM52.801 74.402C53.3236 74.4953 53.767 74.7707 54.131 75.228C54.495 75.6853 54.677 76.2033 54.677 76.782C54.677 77.2767 54.5463 77.7247 54.285 78.126C54.033 78.518 53.6643 78.8307 53.179 79.064C52.6936 79.288 52.129 79.4 51.485 79.4L47.593 79.4L47.593 69.67L51.303 69.67C51.9656 69.67 52.535 69.782 53.011 70.006C53.487 70.23 53.8463 70.5333 54.089 70.916C54.3316 71.2893 54.453 71.7093 54.453 72.176C54.453 72.736 54.3036 73.2027 54.005 73.576C53.7063 73.9493 53.305 74.2247 52.801 74.402ZM49.189 73.758L51.163 73.758C51.6856 73.758 52.0916 73.6413 52.381 73.408C52.6796 73.1653 52.829 72.82 52.829 72.372C52.829 71.9333 52.6796 71.5927 52.381 71.35C52.0916 71.098 51.6856 70.972 51.163 70.972L49.189 70.972L49.189 73.758ZM51.345 78.098C51.8863 78.098 52.311 77.9673 52.619 77.706C52.927 77.4447 53.081 77.0807 53.081 76.614C53.081 76.138 52.9176 75.76 52.591 75.48C52.2643 75.2 51.8303 75.06 51.289 75.06L49.189 75.06L49.189 78.098L51.345 78.098ZM62.2773 77.412L58.2033 77.412L57.5033 79.4L55.8373 79.4L59.3233 69.656L61.1713 69.656L64.6573 79.4L62.9773 79.4L62.2773 77.412ZM61.8293 76.11L60.2473 71.588L58.6513 76.11L61.8293 76.11ZM67.769 69.67L67.769 79.4L66.173 79.4L66.173 69.67L67.769 69.67Z" fill="rgb(26,26,26)" fill-rule="nonzero" />
		<path id="Mumbai" d="M23.4835 69.67L23.4835 79.4L21.8875 79.4L21.8875 72.736L18.9195 79.4L17.8135 79.4L14.8315 72.736L14.8315 79.4L13.2355 79.4L13.2355 69.67L14.9575 69.67L18.3735 77.3L21.7755 69.67L23.4835 69.67ZM27.1632 69.67L27.1632 75.872C27.1632 76.6093 27.3546 77.1647 27.7373 77.538C28.1292 77.9113 28.6706 78.098 29.3612 78.098C30.0613 78.098 30.6026 77.9113 30.9853 77.538C31.3773 77.1647 31.5732 76.6093 31.5732 75.872L31.5732 69.67L33.1693 69.67L33.1693 75.844C33.1693 76.6373 32.9966 77.3093 32.6513 77.86C32.3059 78.4107 31.8439 78.8213 31.2653 79.092C30.6866 79.3627 30.0473 79.498 29.3472 79.498C28.6473 79.498 28.0079 79.3627 27.4293 79.092C26.8599 78.8213 26.4072 78.4107 26.0713 77.86C25.7353 77.3093 25.5672 76.6373 25.5672 75.844L25.5672 69.67L27.1632 69.67ZM45.4953 69.67L45.4953 79.4L43.8993 79.4L43.8993 72.736L40.9313 79.4L39.8253 79.4L36.8433 72.736L36.8433 79.4L35.2473 79.4L35.2473 69.67L36.9693 69.67L40.3853 77.3L43.7873 69.67L45.4953 69.67ZM52.801 74.402C53.3236 74.4953 53.767 74.7707 54.131 75.228C54.495 75.6853 54.677 76.2033 54.677 76.782C54.677 77.2767 54.5463 77.7247 54.285 78.126C54.033 78.518 53.6643 78.8307 53.179 79.064C52.6936 79.288 52.129 79.4 51.485 79.4L47.593 79.4L47.593 69.67L51.303 69.67C51.9656 69.67 52.535 69.782 53.011 70.006C53.487 70.23 53.8463 70.5333 54.089 70.916C54.3316 71.2893 54.453 71.7093 54.453 72.176C54.453 72.736 54.3036 73.2027 54.005 73.576C53.7063 73.9493 53.305 74.2247 52.801 74.402ZM49.189 73.758L51.163 73.758C51.6856 73.758 52.0916 73.6413 52.381 73.408C52.6796 73.1653 52.829 72.82 52.829 72.372C52.829 71.9333 52.6796 71.5927 52.381 71.35C52.0916 71.098 51.6856 70.972 51.163 70.972L49.189 70.972L49.189 73.758ZM51.345 78.098C51.8863 78.098 52.311 77.9673 52.619 77.706C52.927 77.4447 53.081 77.0807 53.081 76.614C53.081 76.138 52.9176 75.76 52.591 75.48C52.2643 75.2 51.8303 75.06 51.289 75.06L49.189 75.06L49.189 78.098L51.345 78.098ZM62.2773 77.412L58.2033 77.412L57.5033 79.4L55.8373 79.4L59.3233 69.656L61.1713 69.656L64.6573 79.4L62.9773 79.4L62.2773 77.412ZM61.8293 76.11L60.2473 71.588L58.6513 76.11L61.8293 76.11ZM67.769 69.67L67.769 79.4L66.173 79.4L66.173 69.67L67.769 69.67Z" fill="rgb(0,0,0)" fill-opacity="0.200000003" fill-rule="nonzero" />
		<g id="Frame" opacity="0.5" clip-path="url(#clipPath_6)" customFrame="url(#clipPath_6)">
			<rect id="Frame" width="80.000000" height="56.140350" x="0.000000" y="0.000000" fill="rgb(255,255,255)" fill-opacity="0" />
			<path id="Vector" d="M10.3447 51C10.1149 51 10 50.8844 10 50.6533C10 50.4221 10.1149 50.3065 10.3447 50.3065L12.815 50.3065L12.815 30.2538L11.3213 30.2538C11.149 30.2538 11.0341 30.196 10.9766 30.0226L10 27.191C10 27.0754 10 26.902 10.0574 26.8442C10.1723 26.7286 10.2298 26.6709 10.3447 26.6709L12.815 26.6709L12.815 22.6834L12.2405 22.6834C12.0107 22.6834 11.8958 22.5678 11.8958 22.3367L11.8958 19.505C11.8958 19.2739 12.0107 19.1583 12.2405 19.1583L25.9708 19.1583L25.9708 15.7487C25.9708 15.5176 26.0857 15.402 26.3155 15.402L26.89 15.402L26.89 8.6407C26.89 7.83166 27.407 7.13819 28.2113 6.96482L28.3262 6.96482L28.3262 5.34673C28.3262 5.11558 28.4411 5 28.6709 5C28.9007 5 29.0156 5.11558 29.0156 5.34673L29.0156 6.96482L29.1305 6.96482C29.8773 7.13819 30.4518 7.83166 30.4518 8.6407L30.4518 12.5126L48.4907 12.5126L48.4907 8.6407C48.4907 7.83166 49.0078 7.13819 49.8121 6.96482L49.927 6.96482L49.927 5.34673C49.8695 5.11558 49.9844 5 50.2142 5C50.444 5 50.5589 5.11558 50.5589 5.34673L50.5589 6.96482L50.6738 6.96482C51.4206 7.13819 51.9951 7.83166 51.9951 8.6407L51.9951 15.402L52.5696 15.402C52.7994 15.402 52.9143 15.5176 52.9143 15.7487L52.9143 19.1583L66.6446 19.1583C66.8744 19.1583 66.9893 19.2739 66.9893 19.505L66.9893 22.3367C66.9893 22.5678 66.8744 22.6834 66.6446 22.6834L66.0701 22.6834L66.0701 26.6709L68.5404 26.6709C68.6553 26.6709 68.7702 26.7286 68.8277 26.8442L68.8851 26.902C68.9426 27.0176 69 27.0754 68.9426 27.191L68.0234 30.0226C67.9659 30.1382 67.7936 30.2538 67.6787 30.2538L66.185 30.2538L66.185 50.3065L68.6553 50.3065C68.8851 50.3065 69 50.4221 69 50.6533C69 50.8844 68.8851 51 68.6553 51L10.3447 51ZM37.1159 32.7965C34.703 34.299 33.2094 36.9573 33.2094 39.8467L33.2094 50.3643L45.6183 50.3643L45.6183 39.9045C45.6183 36.8995 44.1821 34.2412 41.7118 32.7387L39.4138 31.294L37.1159 32.7965ZM58.6592 33.3744C58.8316 33.3744 58.9465 33.4322 59.0613 33.49C61.3593 34.7035 62.7381 36.8995 62.7381 39.4422L62.7381 50.3065L65.2084 50.3065L65.2084 30.2538L52.7994 30.2538L52.7994 50.3065L54.408 50.3065L54.408 39.4422C54.408 36.9573 55.8442 34.6457 58.0847 33.49C58.3145 33.3744 58.4869 33.3744 58.6592 33.3744ZM58.889 40.8869C60.2103 41.5804 60.8997 42.6206 60.8997 44.0075L60.8997 50.2487L62.0487 50.2487L62.0487 39.6734L55.2697 39.6734L55.2697 50.3065L56.4187 50.3065L56.4187 44.0653C56.4187 41.696 58.4869 40.8869 58.5443 40.8869L58.8316 40.8869L58.889 40.8869ZM58.4869 41.6382C58.0273 41.9849 57.1081 42.6206 57.1081 44.0075L57.1081 50.2487L60.1529 50.2487L60.1529 44.0653C60.1529 43.0251 59.6358 42.2161 58.7167 41.5804L58.6592 41.5226L58.4869 41.6382ZM48.2035 50.3065L52.1675 50.3065L52.1675 30.2538L48.2035 30.2538L48.2035 50.3065ZM39.3564 30.4849C39.4138 30.4849 39.4713 30.4849 39.5862 30.5427L42.1139 32.1608C44.7566 33.8367 46.3651 36.6683 46.3651 39.7889L46.3651 50.3065L47.5141 50.3065L47.5141 27.4221L31.371 27.4221L31.371 50.3065L32.52 50.3065L32.52 39.9045C32.52 36.7261 34.0711 33.8367 36.7137 32.1608L39.2415 30.5427C39.2415 30.4849 39.2989 30.4849 39.3564 30.4849ZM26.6602 50.3065L30.6242 50.3065L30.6242 30.2538L26.6602 30.2538L26.6602 50.3065ZM20.1685 33.4322C20.3408 33.4322 20.4557 33.49 20.5706 33.5477C22.8685 34.6457 24.2473 36.8995 24.2473 39.3844L24.2473 50.2487L25.8559 50.2487L25.8559 30.2538L13.4469 30.2538L13.4469 50.3065L16.0321 50.3065L16.0321 39.4422C16.147 36.9573 17.5258 34.7035 19.7089 33.6055C19.8812 33.49 20.0536 33.4322 20.1685 33.4322ZM20.4557 40.8869C21.777 41.5804 22.4664 42.6206 22.4664 44.0075L22.4664 50.2487L23.6154 50.2487L23.6154 39.6734L16.8364 39.6734L16.8364 50.3065L17.9854 50.3065L17.9854 44.0653C17.9854 41.696 20.0536 40.8869 20.111 40.8869L20.3408 40.8869C20.3982 40.8869 20.3982 40.8869 20.4557 40.8869ZM20.0536 41.6382C19.594 41.9849 18.6748 42.6206 18.6748 44.0075L18.6748 50.2487L21.7196 50.2487L21.7196 44.0653C21.7196 43.0251 21.2025 42.2161 20.2833 41.5804L20.2259 41.5226L20.0536 41.6382ZM58.5443 34.01C56.7059 34.9347 55.4995 36.7261 55.2697 38.8065L55.2697 38.9221L62.1061 38.9221L62.1061 38.8065C61.8763 36.7839 60.6699 35.0503 58.8316 34.01L58.5443 34.01ZM20.0536 34.01C18.2152 34.9347 17.0088 36.7261 16.779 38.8065L16.779 38.9221L23.6154 38.9221L23.6154 38.8065C23.443 36.7839 22.2366 35.0503 20.3408 34.01L20.0536 34.01ZM52.9143 29.5025L67.2765 29.5025L68.0234 27.3643L52.9143 27.3643L52.9143 29.5025ZM48.2035 29.5025L52.1675 29.5025L52.1675 27.3643L48.2035 27.3643L48.2035 29.5025ZM26.6602 29.5025L30.6242 29.5025L30.6242 27.3643L26.6602 27.3643L26.6602 29.5025ZM11.6086 29.5025L25.9708 29.5025L25.9708 27.3643L10.8617 27.3643L11.6086 29.5025ZM52.9143 26.7286L65.3233 26.7286L65.3233 22.7412L52.9143 22.7412L52.9143 26.7286ZM48.2035 26.7286L52.1675 26.7286L52.1675 22.7412L48.2035 22.7412L48.2035 26.7286ZM45.446 26.7286L47.5716 26.7286L47.5716 22.7412L45.446 22.7412L45.446 26.7286ZM42.631 26.7286L44.7566 26.7286L44.7566 22.7412L42.631 22.7412L42.631 26.7286ZM39.816 26.7286L41.9416 26.7286L41.9416 22.7412L39.816 22.7412L39.816 26.7286ZM37.001 26.7286L39.1266 26.7286L39.1266 22.7412L37.001 22.7412L37.001 26.7286ZM34.186 26.7286L36.3116 26.7286L36.3116 22.7412L34.186 22.7412L34.186 26.7286ZM31.371 26.7286L33.4966 26.7286L33.4966 22.7412L31.371 22.7412L31.371 26.7286ZM26.6602 26.7286L30.6242 26.7286L30.6242 22.7412L26.6602 22.7412L26.6602 26.7286ZM13.5044 26.7286L25.9133 26.7286L25.9133 22.7412L13.5044 22.7412L13.5044 26.7286ZM52.9143 21.99L66.2999 21.99L66.2999 19.8518L52.9143 19.8518L52.9143 21.99ZM48.2035 21.99L52.1675 21.99L52.1675 16.0955L48.2035 16.0955L48.2035 21.99ZM31.371 21.99L47.5716 21.99L47.5716 16.0955L31.371 16.0955L31.371 21.99ZM26.6602 21.99L30.6242 21.99L30.6242 16.0955L26.6602 16.0955L26.6602 21.99ZM12.5852 21.99L25.9708 21.99L25.9708 19.8518L12.5852 19.8518L12.5852 21.99ZM49.1801 15.402L51.3057 15.402L51.3057 10.4322L49.1801 10.4322L49.1801 15.402ZM30.3944 15.402L48.4333 15.402L48.4333 13.2638L30.3944 13.2638L30.3944 15.402ZM27.5794 15.402L29.705 15.402L29.705 10.4322L27.5794 10.4322L27.5794 15.402ZM50.2142 7.6005C49.5823 7.6005 49.1801 8.00503 49.1801 8.6407L49.1801 9.6809L51.3057 9.6809L51.3057 8.6407C51.2483 8.00503 50.8462 7.6005 50.2142 7.6005ZM28.6709 7.6005C28.0389 7.6005 27.6368 8.00503 27.6368 8.6407L27.6368 9.6809L29.7624 9.6809L29.7624 8.6407C29.705 8.00503 29.3028 7.6005 28.6709 7.6005Z" fill="rgb(26,26,26)" fill-rule="nonzero" />
			<path id="Vector" d="M10.3447 51C10.1149 51 10 50.8844 10 50.6533C10 50.4221 10.1149 50.3065 10.3447 50.3065L12.815 50.3065L12.815 30.2538L11.3213 30.2538C11.149 30.2538 11.0341 30.196 10.9766 30.0226L10 27.191C10 27.0754 10 26.902 10.0574 26.8442C10.1723 26.7286 10.2298 26.6709 10.3447 26.6709L12.815 26.6709L12.815 22.6834L12.2405 22.6834C12.0107 22.6834 11.8958 22.5678 11.8958 22.3367L11.8958 19.505C11.8958 19.2739 12.0107 19.1583 12.2405 19.1583L25.9708 19.1583L25.9708 15.7487C25.9708 15.5176 26.0857 15.402 26.3155 15.402L26.89 15.402L26.89 8.6407C26.89 7.83166 27.407 7.13819 28.2113 6.96482L28.3262 6.96482L28.3262 5.34673C28.3262 5.11558 28.4411 5 28.6709 5C28.9007 5 29.0156 5.11558 29.0156 5.34673L29.0156 6.96482L29.1305 6.96482C29.8773 7.13819 30.4518 7.83166 30.4518 8.6407L30.4518 12.5126L48.4907 12.5126L48.4907 8.6407C48.4907 7.83166 49.0078 7.13819 49.8121 6.96482L49.927 6.96482L49.927 5.34673C49.8695 5.11558 49.9844 5 50.2142 5C50.444 5 50.5589 5.11558 50.5589 5.34673L50.5589 6.96482L50.6738 6.96482C51.4206 7.13819 51.9951 7.83166 51.9951 8.6407L51.9951 15.402L52.5696 15.402C52.7994 15.402 52.9143 15.5176 52.9143 15.7487L52.9143 19.1583L66.6446 19.1583C66.8744 19.1583 66.9893 19.2739 66.9893 19.505L66.9893 22.3367C66.9893 22.5678 66.8744 22.6834 66.6446 22.6834L66.0701 22.6834L66.0701 26.6709L68.5404 26.6709C68.6553 26.6709 68.7702 26.7286 68.8277 26.8442L68.8851 26.902C68.9426 27.0176 69 27.0754 68.9426 27.191L68.0234 30.0226C67.9659 30.1382 67.7936 30.2538 67.6787 30.2538L66.185 30.2538L66.185 50.3065L68.6553 50.3065C68.8851 50.3065 69 50.4221 69 50.6533C69 50.8844 68.8851 51 68.6553 51L10.3447 51ZM37.1159 32.7965C34.703 34.299 33.2094 36.9573 33.2094 39.8467L33.2094 50.3643L45.6183 50.3643L45.6183 39.9045C45.6183 36.8995 44.1821 34.2412 41.7118 32.7387L39.4138 31.294L37.1159 32.7965ZM58.6592 33.3744C58.8316 33.3744 58.9465 33.4322 59.0613 33.49C61.3593 34.7035 62.7381 36.8995 62.7381 39.4422L62.7381 50.3065L65.2084 50.3065L65.2084 30.2538L52.7994 30.2538L52.7994 50.3065L54.408 50.3065L54.408 39.4422C54.408 36.9573 55.8442 34.6457 58.0847 33.49C58.3145 33.3744 58.4869 33.3744 58.6592 33.3744ZM58.889 40.8869C60.2103 41.5804 60.8997 42.6206 60.8997 44.0075L60.8997 50.2487L62.0487 50.2487L62.0487 39.6734L55.2697 39.6734L55.2697 50.3065L56.4187 50.3065L56.4187 44.0653C56.4187 41.696 58.4869 40.8869 58.5443 40.8869L58.8316 40.8869L58.889 40.8869ZM58.4869 41.6382C58.0273 41.9849 57.1081 42.6206 57.1081 44.0075L57.1081 50.2487L60.1529 50.2487L60.1529 44.0653C60.1529 43.0251 59.6358 42.2161 58.7167 41.5804L58.6592 41.5226L58.4869 41.6382ZM48.2035 50.3065L52.1675 50.3065L52.1675 30.2538L48.2035 30.2538L48.2035 50.3065ZM39.3564 30.4849C39.4138 30.4849 39.4713 30.4849 39.5862 30.5427L42.1139 32.1608C44.7566 33.8367 46.3651 36.6683 46.3651 39.7889L46.3651 50.3065L47.5141 50.3065L47.5141 27.4221L31.371 27.4221L31.371 50.3065L32.52 50.3065L32.52 39.9045C32.52 36.7261 34.0711 33.8367 36.7137 32.1608L39.2415 30.5427C39.2415 30.4849 39.2989 30.4849 39.3564 30.4849ZM26.6602 50.3065L30.6242 50.3065L30.6242 30.2538L26.6602 30.2538L26.6602 50.3065ZM20.1685 33.4322C20.3408 33.4322 20.4557 33.49 20.5706 33.5477C22.8685 34.6457 24.2473 36.8995 24.2473 39.3844L24.2473 50.2487L25.8559 50.2487L25.8559 30.2538L13.4469 30.2538L13.4469 50.3065L16.0321 50.3065L16.0321 39.4422C16.147 36.9573 17.5258 34.7035 19.7089 33.6055C19.8812 33.49 20.0536 33.4322 20.1685 33.4322ZM20.4557 40.8869C21.777 41.5804 22.4664 42.6206 22.4664 44.0075L22.4664 50.2487L23.6154 50.2487L23.6154 39.6734L16.8364 39.6734L16.8364 50.3065L17.9854 50.3065L17.9854 44.0653C17.9854 41.696 20.0536 40.8869 20.111 40.8869L20.3408 40.8869C20.3982 40.8869 20.3982 40.8869 20.4557 40.8869ZM20.0536 41.6382C19.594 41.9849 18.6748 42.6206 18.6748 44.0075L18.6748 50.2487L21.7196 50.2487L21.7196 44.0653C21.7196 43.0251 21.2025 42.2161 20.2833 41.5804L20.2259 41.5226L20.0536 41.6382ZM58.5443 34.01C56.7059 34.9347 55.4995 36.7261 55.2697 38.8065L55.2697 38.9221L62.1061 38.9221L62.1061 38.8065C61.8763 36.7839 60.6699 35.0503 58.8316 34.01L58.5443 34.01ZM20.0536 34.01C18.2152 34.9347 17.0088 36.7261 16.779 38.8065L16.779 38.9221L23.6154 38.9221L23.6154 38.8065C23.443 36.7839 22.2366 35.0503 20.3408 34.01L20.0536 34.01ZM52.9143 29.5025L67.2765 29.5025L68.0234 27.3643L52.9143 27.3643L52.9143 29.5025ZM48.2035 29.5025L52.1675 29.5025L52.1675 27.3643L48.2035 27.3643L48.2035 29.5025ZM26.6602 29.5025L30.6242 29.5025L30.6242 27.3643L26.6602 27.3643L26.6602 29.5025ZM11.6086 29.5025L25.9708 29.5025L25.9708 27.3643L10.8617 27.3643L11.6086 29.5025ZM52.9143 26.7286L65.3233 26.7286L65.3233 22.7412L52.9143 22.7412L52.9143 26.7286ZM48.2035 26.7286L52.1675 26.7286L52.1675 22.7412L48.2035 22.7412L48.2035 26.7286ZM45.446 26.7286L47.5716 26.7286L47.5716 22.7412L45.446 22.7412L45.446 26.7286ZM42.631 26.7286L44.7566 26.7286L44.7566 22.7412L42.631 22.7412L42.631 26.7286ZM39.816 26.7286L41.9416 26.7286L41.9416 22.7412L39.816 22.7412L39.816 26.7286ZM37.001 26.7286L39.1266 26.7286L39.1266 22.7412L37.001 22.7412L37.001 26.7286ZM34.186 26.7286L36.3116 26.7286L36.3116 22.7412L34.186 22.7412L34.186 26.7286ZM31.371 26.7286L33.4966 26.7286L33.4966 22.7412L31.371 22.7412L31.371 26.7286ZM26.6602 26.7286L30.6242 26.7286L30.6242 22.7412L26.6602 22.7412L26.6602 26.7286ZM13.5044 26.7286L25.9133 26.7286L25.9133 22.7412L13.5044 22.7412L13.5044 26.7286ZM52.9143 21.99L66.2999 21.99L66.2999 19.8518L52.9143 19.8518L52.9143 21.99ZM48.2035 21.99L52.1675 21.99L52.1675 16.0955L48.2035 16.0955L48.2035 21.99ZM31.371 21.99L47.5716 21.99L47.5716 16.0955L31.371 16.0955L31.371 21.99ZM26.6602 21.99L30.6242 21.99L30.6242 16.0955L26.6602 16.0955L26.6602 21.99ZM12.5852 21.99L25.9708 21.99L25.9708 19.8518L12.5852 19.8518L12.5852 21.99ZM49.1801 15.402L51.3057 15.402L51.3057 10.4322L49.1801 10.4322L49.1801 15.402ZM30.3944 15.402L48.4333 15.402L48.4333 13.2638L30.3944 13.2638L30.3944 15.402ZM27.5794 15.402L29.705 15.402L29.705 10.4322L27.5794 10.4322L27.5794 15.402ZM50.2142 7.6005C49.5823 7.6005 49.1801 8.00503 49.1801 8.6407L49.1801 9.6809L51.3057 9.6809L51.3057 8.6407C51.2483 8.00503 50.8462 7.6005 50.2142 7.6005ZM28.6709 7.6005C28.0389 7.6005 27.6368 8.00503 27.6368 8.6407L27.6368 9.6809L29.7624 9.6809L29.7624 8.6407C29.705 8.00503 29.3028 7.6005 28.6709 7.6005Z" fill="rgb(0,0,0)" fill-opacity="0.200000003" fill-rule="nonzero" />
		</g>
	</g>
</svg>
