<svg viewBox="0 0 78.5195 43.9978" xmlns="http://www.w3.org/2000/svg" xmlns:xlink="http://www.w3.org/1999/xlink" width="78.519531" height="43.997803" fill="none" customFrame="#000000">
	<g id="Group 449">
		<path id="Vector" d="M66.641 0L0 0L0 2.0442L66.641 2.0442L66.641 0Z" fill="rgb(0,43,85)" fill-rule="evenodd" transform="matrix(0.998595,0.0529891,-0.0529891,0.998595,5.32471,32.7021)" />
		<path id="Vector" d="M8.70908 17.9558L12.099 15.221L15.4889 17.9558L15.4889 39.6133L8.70908 39.6133L8.70908 17.9558ZM17.4182 12.9282L20.8081 10.1934L24.198 12.9282L24.198 39.6133L17.4182 39.6133L17.4182 12.9282ZM26.1273 7.81768L29.5172 5.08287L32.9071 7.81768L32.9071 39.6409L26.1273 39.6409L26.1273 7.81768ZM34.8363 2.73481L38.2263 0L41.6162 2.73481L41.6162 39.6133L34.8363 39.6133L34.8363 2.73481ZM43.5454 7.81768L46.9353 5.08287L50.3253 7.81768L50.3253 39.6409L43.5454 39.6409L43.5454 7.81768ZM52.2821 12.9282L55.672 10.1934L59.0619 12.9282L59.0619 39.6133L52.2821 39.6133L52.2821 12.9282ZM60.9911 17.9558L64.3811 15.221L67.771 17.9558L67.771 39.6133L60.9911 39.6133L60.9911 17.9558ZM69.7002 22.9834L73.0902 20.2486L76.4801 22.9834L76.4801 39.6133L69.7002 39.6133L69.7002 22.9834ZM0 22.9834L3.38993 20.2486L6.77986 22.9834L6.77986 39.6133L0 39.6133L0 22.9834Z" fill="rgb(0,43,85)" fill-rule="evenodd" transform="matrix(0.998595,0.0529891,-0.0529891,0.998595,2.14746,0.00146484)" />
		<path id="Vector" d="M76.4801 0L0 0L0 2.20995L76.4801 2.20995L76.4801 0Z" fill="rgb(0,43,85)" fill-rule="evenodd" transform="matrix(0.998595,0.0529891,-0.0529891,0.998595,0.117188,37.7371)" />
		<path id="Vector" d="M66.641 0L0 0L0 2.0442L66.641 2.0442L66.641 0Z" fill="rgb(0,43,85)" fill-rule="evenodd" transform="matrix(0.998595,0.0529891,-0.0529891,0.998595,5.63086,26.9365)" />
		<path id="Vector" d="M48.6165 0L0 0L0 2.0442L48.6165 2.0442L48.6165 0Z" fill="rgb(0,43,85)" fill-rule="evenodd" transform="matrix(0.998595,0.0529891,-0.0529891,0.998595,14.936,21.6494)" />
		<path id="Vector" d="M33.4583 0L0 0L0 2.0442L33.4583 2.0442L33.4583 0Z" fill="rgb(0,43,85)" fill-rule="evenodd" transform="matrix(0.998595,0.0529891,-0.0529891,0.998595,22.8105,16.2854)" />
		<path id="Vector" d="M18.7411 0L0 0L0 2.0442L18.7411 2.0442L18.7411 0Z" fill="rgb(0,43,85)" fill-rule="evenodd" transform="matrix(0.998595,0.0529891,-0.0529891,0.998595,30.4648,10.9099)" />
	</g>
</svg>
