<svg viewBox="0 0 56 56" xmlns="http://www.w3.org/2000/svg" xmlns:xlink="http://www.w3.org/1999/xlink" width="56.000000" height="56.000000" fill="none">
	<rect id="Frame" width="56.000000" height="56.000000" x="0.000000" y="0.000000" fill="rgb(255,255,255)" fill-opacity="0" />
	<path id="Vector" d="M23.5217 4.6665C12.7637 6.85027 4.6665 16.3616 4.6665 27.7642C4.6665 40.7809 15.2187 51.3332 28.2355 51.3332C39.638 51.3332 49.1494 43.236 51.3332 32.478" fill-rule="nonzero" stroke="rgb(0,43,85)" stroke-width="1.5" />
	<path id="Vector" d="M44.1875 42.0002C45.0837 41.8056 45.9132 41.4962 46.6667 41.0738M34.2708 40.4616C35.6606 41.0703 37.0011 41.5214 38.2786 41.8177M25.3274 34.8781C26.2922 35.5555 27.3233 36.3677 28.3274 37.0687M7 32.2585C7.75213 31.891 8.56406 31.4694 9.47917 31.1084M15.0525 30.3335C16.3635 30.4791 17.8337 30.8529 19.5007 31.5543" fill-rule="nonzero" stroke="rgb(0,43,85)" stroke-width="1.5" />
	<path id="Vector" d="M39.6665 12.8335C37.7336 12.8335 36.1665 14.4005 36.1665 16.3335C36.1665 18.2665 37.7336 19.8335 39.6665 19.8335C41.5994 19.8335 43.1665 18.2665 43.1665 16.3335C43.1665 14.4005 41.5994 12.8335 39.6665 12.8335Z" fill-rule="nonzero" stroke="rgb(176,221,29)" stroke-width="1.5" />
	<path id="Vector" d="M51.3333 16.1212C51.3333 22.5003 45.8932 26.9769 40.8683 30.021C40.5022 30.2256 40.0881 30.3332 39.6667 30.3332C39.2453 30.3332 38.8311 30.2256 38.465 30.021C33.4495 26.9473 28 22.5224 28 16.1212C28 9.84216 33.3529 4.6665 39.6667 4.6665C45.9804 4.6665 51.3333 9.84216 51.3333 16.1212Z" fill-rule="nonzero" stroke="rgb(176,221,29)" stroke-width="1.5" />
</svg>
